<svg xmlns="http://www.w3.org/2000/svg" xmlns:xlink="http://www.w3.org/1999/xlink" viewBox="0 0 721.14 499.19"><defs><style>.cls-1{fill:url(#linear-gradient);}.cls-2{fill:#e4ddcc;}.cls-3{opacity:0.4;}.cls-4{opacity:0.1;}.cls-5{fill:#fef9c8;}.cls-6{fill:#f4dfbb;}.cls-7{fill:#e0ceb6;}</style><linearGradient id="linear-gradient" x1="360" x2="360" y2="499.19" gradientUnits="userSpaceOnUse"><stop offset="0" stop-color="#17122a"/><stop offset="0.16" stop-color="#271938"/><stop offset="0.17" stop-color="#281939"/><stop offset="0.26" stop-color="#381f40"/><stop offset="0.42" stop-color="#5c2d51"/><stop offset="0.48" stop-color="#6c3a58"/><stop offset="0.58" stop-color="#965b69"/><stop offset="0.7" stop-color="#cd8780"/><stop offset="0.76" stop-color="#d5978b"/><stop offset="0.86" stop-color="#e8c0a8"/><stop offset="0.89" stop-color="#efceb1"/></linearGradient></defs><title>Ativo 12</title><g id="Camada_2" data-name="Camada 2"><g id="Layer_1" data-name="Layer 1"><rect class="cls-1" width="720" height="499.19"/><path class="cls-2" d="M96.68,104.42a.75.75,0,0,0,0-1.5.75.75,0,0,0,0,1.5Z"/><path class="cls-2" d="M49.55,42.78v.66a1.13,1.13,0,0,0,2.25,0v-.66a1.13,1.13,0,0,0-2.25,0Z"/><path class="cls-2" d="M244,47.24A1.13,1.13,0,0,0,244,45a1.13,1.13,0,0,0,0,2.25Z"/><path class="cls-2" d="M74.68,49.24a1.13,1.13,0,0,0,0-2.25,1.13,1.13,0,0,0,0,2.25Z"/><path class="cls-2" d="M230.55,62.91a3.32,3.32,0,0,0,2.13,1,1.12,1.12,0,0,0,1.12-1.12,1.15,1.15,0,0,0-1.12-1.13c.13,0-.18-.06-.08,0a2.07,2.07,0,0,1-.32-.19c.15.1-.1-.08-.14-.12-1-1-2.63.57-1.59,1.59Z"/><path class="cls-2" d="M129.34,18.57H130a1.13,1.13,0,0,0,0-2.25h-.67a1.13,1.13,0,0,0,0,2.25Z"/><path class="cls-2" d="M80,21.24h.67a1.13,1.13,0,0,0,0-2.25H80a1.13,1.13,0,0,0,0,2.25Z"/><path class="cls-2" d="M166.22,55.44a1.81,1.81,0,0,0,1.79,1.8A1.13,1.13,0,0,0,168,55a.52.52,0,0,1,.46.39c-.1-.27,0,.15,0,.06a1.13,1.13,0,0,0-2.25,0Z"/><path class="cls-2" d="M238.88,23.44c0,.17.07-.34,0-.12s0,.08,0-.08a.51.51,0,0,1,.4-.25,1.13,1.13,0,0,0,0,2.25,1.81,1.81,0,0,0,1.79-1.8c0-1.45-2.21-1.44-2.25,0Z"/><path class="cls-2" d="M196.68,28.57h.66a1.13,1.13,0,0,0,0-2.25h-.66a1.13,1.13,0,0,0,0,2.25Z"/><path class="cls-2" d="M250,21.9a1.13,1.13,0,0,0,0-2.25,1.13,1.13,0,0,0,0,2.25Z"/><path class="cls-2" d="M216.68,16.57a1.13,1.13,0,0,0,0-2.25,1.13,1.13,0,0,0,0,2.25Z"/><path class="cls-2" d="M50,19.24a1.84,1.84,0,0,0,1.36-.4,1.82,1.82,0,0,0,.43-1.4,1.13,1.13,0,0,0-2.25,0c0,.09,0,.54,0,.17a.86.86,0,0,1,.76-.63H50a1.13,1.13,0,0,0,0,2.25Z"/><path class="cls-2" d="M259.54,49.45v.66a1.13,1.13,0,0,0,2.25,0v-.66a1.13,1.13,0,0,0-2.25,0Z"/><path class="cls-2" d="M454,53.9a1.13,1.13,0,0,0,0-2.25,1.13,1.13,0,0,0,0,2.25Z"/><path class="cls-2" d="M284.67,55.9a1.13,1.13,0,0,0,0-2.25,1.13,1.13,0,0,0,0,2.25Z"/><path class="cls-2" d="M440.54,69.57a3.33,3.33,0,0,0,2.13,1,1.12,1.12,0,0,0,1.12-1.12,1.14,1.14,0,0,0-1.12-1.13c.13,0-.18-.06-.08,0a2.07,2.07,0,0,1-.32-.19c.15.1-.1-.09-.14-.13-1-1-2.63.58-1.59,1.59Z"/><path class="cls-2" d="M339.33,25.24H340A1.13,1.13,0,0,0,340,23h-.67a1.13,1.13,0,0,0,0,2.25Z"/><path class="cls-2" d="M290,27.9h.67a1.13,1.13,0,0,0,0-2.25H290a1.13,1.13,0,0,0,0,2.25Z"/><path class="cls-2" d="M376.21,62.11A1.81,1.81,0,0,0,378,63.9a1.12,1.12,0,0,0,1.12-1.12A1.15,1.15,0,0,0,378,61.65a.53.53,0,0,1,.46.4c-.1-.27,0,.14,0,.06a1.13,1.13,0,0,0-2.25,0Z"/><path class="cls-2" d="M448.87,30.11c0,.17.07-.34,0-.12s0,.08,0-.08a.53.53,0,0,1,.4-.26,1.14,1.14,0,0,0-1.12,1.13,1.12,1.12,0,0,0,1.12,1.12,1.79,1.79,0,0,0,1.79-1.79,1.13,1.13,0,0,0-2.25,0Z"/><path class="cls-2" d="M406.67,35.24h.66a1.13,1.13,0,0,0,0-2.25h-.66a1.13,1.13,0,0,0,0,2.25Z"/><path class="cls-2" d="M460,28.57a1.13,1.13,0,0,0,0-2.25,1.13,1.13,0,0,0,0,2.25Z"/><path class="cls-2" d="M426.67,23.24a1.13,1.13,0,0,0,0-2.25,1.13,1.13,0,0,0,0,2.25Z"/><path class="cls-2" d="M260,25.9a1.51,1.51,0,0,0,1.79-1.79,1.13,1.13,0,0,0-2.25,0c0,.09-.05.54,0,.17a.83.83,0,0,1,.77-.63c-.11,0-.22,0-.33,0a1.13,1.13,0,0,0,0,2.25Z"/><g class="cls-3"><path class="cls-2" d="M190.21,152.44v.67a1.13,1.13,0,0,0,2.25,0v-.67a1.13,1.13,0,0,0-2.25,0Z"/><path class="cls-2" d="M384.67,156.9a1.13,1.13,0,0,0,0-2.25,1.13,1.13,0,0,0,0,2.25Z"/><path class="cls-2" d="M215.33,158.9a1.13,1.13,0,0,0,0-2.25,1.13,1.13,0,0,0,0,2.25Z"/><path class="cls-2" d="M371.21,172.57a3.33,3.33,0,0,0,2.12,1,1.13,1.13,0,1,0,0-2.25c.14,0-.17-.06-.07,0a2.07,2.07,0,0,1-.32-.19c.15.1-.1-.09-.14-.13-1-1-2.63.58-1.59,1.59Z"/><path class="cls-2" d="M270,128.24h.67a1.13,1.13,0,0,0,0-2.25H270a1.13,1.13,0,0,0,0,2.25Z"/><path class="cls-2" d="M220.67,130.9h.66a1.13,1.13,0,0,0,0-2.25h-.66a1.13,1.13,0,0,0,0,2.25Z"/><path class="cls-2" d="M306.88,165.11a1.81,1.81,0,0,0,1.79,1.79,1.12,1.12,0,0,0,1.12-1.12,1.14,1.14,0,0,0-1.12-1.13.55.55,0,0,1,.46.4c-.1-.27,0,.14,0,.06a1.13,1.13,0,0,0-2.25,0Z"/><path class="cls-2" d="M379.54,133.11c0,.16.06-.34,0-.13s0,.09,0-.07a.54.54,0,0,1,.41-.26,1.14,1.14,0,0,0-1.12,1.13A1.12,1.12,0,0,0,380,134.9a1.81,1.81,0,0,0,1.79-1.79,1.13,1.13,0,0,0-2.25,0Z"/><path class="cls-2" d="M337.33,138.24H338a1.13,1.13,0,0,0,0-2.25h-.67a1.13,1.13,0,0,0,0,2.25Z"/><path class="cls-2" d="M390.67,131.57a1.13,1.13,0,0,0,0-2.25,1.13,1.13,0,0,0,0,2.25Z"/><path class="cls-2" d="M357.33,126.24a1.13,1.13,0,0,0,0-2.25,1.13,1.13,0,0,0,0,2.25Z"/><path class="cls-2" d="M190.67,128.9a1.51,1.51,0,0,0,1.79-1.79,1.13,1.13,0,0,0-2.25,0c0,.09-.05.54,0,.17a.84.84,0,0,1,.77-.63h-.32a1.13,1.13,0,0,0,0,2.25Z"/></g><g class="cls-4"><path class="cls-2" d="M231.52,213.22v.66a1.13,1.13,0,0,0,2.25,0v-.66a1.13,1.13,0,0,0-2.25,0Z"/><path class="cls-2" d="M426,217.67a1.13,1.13,0,0,0,0-2.25,1.13,1.13,0,0,0,0,2.25Z"/><path class="cls-2" d="M256.64,219.67a1.13,1.13,0,0,0,0-2.25,1.13,1.13,0,0,0,0,2.25Z"/><path class="cls-2" d="M412.51,233.34a3.38,3.38,0,0,0,2.13,1,1.13,1.13,0,0,0,1.13-1.12,1.15,1.15,0,0,0-1.13-1.13c.14,0-.17-.06-.07,0a2.17,2.17,0,0,1-.33-.19c.16.1-.09-.09-.14-.13-1-1-2.63.58-1.59,1.59Z"/><path class="cls-2" d="M311.31,189H312a1.13,1.13,0,0,0,0-2.25h-.66a1.13,1.13,0,0,0,0,2.25Z"/><path class="cls-2" d="M262,191.67h.67a1.13,1.13,0,0,0,0-2.25H262a1.13,1.13,0,0,0,0,2.25Z"/><path class="cls-2" d="M348.18,225.88a1.81,1.81,0,0,0,1.79,1.79,1.12,1.12,0,0,0,1.13-1.12,1.15,1.15,0,0,0-1.13-1.13.55.55,0,0,1,.47.4c-.11-.27,0,.14,0,.06a1.13,1.13,0,0,0-2.25,0Z"/><path class="cls-2" d="M420.85,193.88c0,.17.06-.34,0-.12l0-.08a.53.53,0,0,1,.41-.26,1.15,1.15,0,0,0-1.13,1.13,1.13,1.13,0,0,0,1.13,1.12,1.81,1.81,0,0,0,1.79-1.79,1.13,1.13,0,0,0-2.25,0Z"/><path class="cls-2" d="M378.64,199h.67a1.13,1.13,0,0,0,0-2.25h-.67a1.13,1.13,0,0,0,0,2.25Z"/><path class="cls-2" d="M432,192.34a1.13,1.13,0,0,0,0-2.25,1.13,1.13,0,0,0,0,2.25Z"/><path class="cls-2" d="M398.64,187a1.13,1.13,0,0,0,0-2.25,1.13,1.13,0,0,0,0,2.25Z"/><path class="cls-2" d="M232,189.67a1.51,1.51,0,0,0,1.8-1.79,1.13,1.13,0,0,0-2.25,0c0,.09-.06.54,0,.17a.84.84,0,0,1,.77-.63c-.11,0-.22,0-.33,0a1.13,1.13,0,0,0,0,2.25Z"/></g><g class="cls-4"><path class="cls-2" d="M436.92,188.11v.67a1.13,1.13,0,0,0,2.25,0v-.67a1.13,1.13,0,0,0-2.25,0Z"/><path class="cls-2" d="M631.38,192.57a1.13,1.13,0,0,0,0-2.25,1.13,1.13,0,0,0,0,2.25Z"/><path class="cls-2" d="M462.05,194.57a1.13,1.13,0,0,0,0-2.25,1.13,1.13,0,0,0,0,2.25Z"/><path class="cls-2" d="M617.92,208.24a3.33,3.33,0,0,0,2.13,1,1.13,1.13,0,0,0,0-2.25c.13,0-.18-.07-.08,0l-.32-.2c.15.11-.1-.08-.14-.12-1-1-2.63.57-1.59,1.59Z"/><path class="cls-2" d="M516.71,163.9h.67a1.13,1.13,0,0,0,0-2.25h-.67a1.13,1.13,0,0,0,0,2.25Z"/><path class="cls-2" d="M467.38,166.57h.67a1.13,1.13,0,0,0,0-2.25h-.67a1.13,1.13,0,0,0,0,2.25Z"/><path class="cls-2" d="M553.59,200.78a1.81,1.81,0,0,0,1.79,1.79,1.12,1.12,0,0,0,1.12-1.12,1.14,1.14,0,0,0-1.12-1.13.54.54,0,0,1,.46.39c-.1-.27,0,.15,0,.07a1.13,1.13,0,0,0-2.25,0Z"/><path class="cls-2" d="M626.25,168.78c0,.16.07-.34,0-.13s0,.09,0-.07a.5.5,0,0,1,.4-.26,1.14,1.14,0,0,0-1.12,1.13,1.12,1.12,0,0,0,1.12,1.12,1.81,1.81,0,0,0,1.79-1.79,1.13,1.13,0,0,0-2.25,0Z"/><path class="cls-2" d="M584.05,173.9h.66a1.13,1.13,0,0,0,0-2.25h-.66a1.13,1.13,0,0,0,0,2.25Z"/><path class="cls-2" d="M637.38,167.24a1.13,1.13,0,0,0,0-2.25,1.13,1.13,0,0,0,0,2.25Z"/><path class="cls-2" d="M604.05,161.9a1.13,1.13,0,0,0,0-2.25,1.13,1.13,0,0,0,0,2.25Z"/><path class="cls-2" d="M437.38,164.57a1.81,1.81,0,0,0,1.36-.4,1.83,1.83,0,0,0,.43-1.39,1.13,1.13,0,0,0-2.25,0c0,.08-.05.54,0,.17a.86.86,0,0,1,.76-.64,1.69,1.69,0,0,1-.32,0,1.13,1.13,0,0,0,0,2.25Z"/></g><g class="cls-3"><path class="cls-2" d="M132.8,173.9a1.13,1.13,0,0,0,0-2.25,1.13,1.13,0,0,0,0,2.25Z"/><path class="cls-2" d="M119.33,189.57a3.38,3.38,0,0,0,2.13,1,1.13,1.13,0,1,0,0-2.25c.14,0-.17-.06-.07,0a2.07,2.07,0,0,1-.32-.19c.15.1-.1-.09-.14-.13-1-1-2.63.58-1.6,1.59Z"/><path class="cls-2" d="M18.13,145.24h.67a1.13,1.13,0,0,0,0-2.25h-.67a1.13,1.13,0,0,0,0,2.25Z"/><path class="cls-2" d="M55,182.11a1.81,1.81,0,0,0,1.79,1.79,1.12,1.12,0,0,0,1.12-1.12,1.14,1.14,0,0,0-1.12-1.13.55.55,0,0,1,.46.4c-.1-.27,0,.14,0,.06a1.13,1.13,0,0,0-2.25,0Z"/><path class="cls-2" d="M127.67,150.11c0,.16.06-.34,0-.13s0,.09,0-.07a.54.54,0,0,1,.41-.26,1.14,1.14,0,0,0-1.12,1.13,1.12,1.12,0,0,0,1.12,1.12,1.81,1.81,0,0,0,1.79-1.79,1.13,1.13,0,0,0-2.25,0Z"/><path class="cls-2" d="M85.46,155.24h.67a1.13,1.13,0,0,0,0-2.25h-.67a1.13,1.13,0,0,0,0,2.25Z"/><path class="cls-2" d="M138.8,148.57a1.13,1.13,0,0,0,0-2.25,1.13,1.13,0,0,0,0,2.25Z"/><path class="cls-2" d="M105.46,143.24a1.13,1.13,0,0,0,0-2.25,1.13,1.13,0,0,0,0,2.25Z"/></g><path class="cls-2" d="M134.68,98.86a.75.75,0,0,0,0-1.5.75.75,0,0,0,0,1.5Z"/><path class="cls-2" d="M33.26,88.33V89a.75.75,0,0,0,1.5,0v-.67a.75.75,0,0,0-1.5,0Z"/><line class="cls-2" x1="206.01" y1="93.44" x2="206.68" y2="93.44"/><polygon class="cls-5" points="369.08 46.67 372.21 43.46 368.84 46.21 368.68 42 368.32 46.11 365.14 43.46 368.28 46.6 363.67 47 368.11 47 365.14 50.54 368.49 47.26 368.68 52 368.94 47.29 372.21 50.54 369.22 47 373.68 47 369.08 46.67"/><polygon class="cls-5" points="538.9 30 542.03 26.79 538.66 29.55 538.49 25.33 538.13 29.44 534.96 26.79 538.1 29.93 533.49 30.33 537.93 30.33 534.96 33.87 538.31 30.59 538.49 35.33 538.76 30.63 542.03 33.87 539.04 30.33 543.5 30.33 538.9 30"/><polygon class="cls-5" points="487.97 86.88 490.31 84.49 487.79 86.55 487.66 83.4 487.4 86.47 485.02 84.49 487.37 86.83 483.93 87.13 487.24 87.13 485.02 89.78 487.53 87.33 487.66 90.87 487.87 87.35 490.31 89.78 488.07 87.13 491.4 87.13 487.97 86.88"/><polygon class="cls-5" points="302 103.49 304.34 101.09 301.82 103.15 301.69 100 301.43 103.08 299.05 101.09 301.4 103.44 297.96 103.74 301.27 103.74 299.05 106.39 301.56 103.94 301.69 107.48 301.9 103.96 304.34 106.39 302.11 103.74 305.44 103.74 302 103.49"/><polygon class="cls-5" points="84.72 89.51 87.06 87.11 84.54 89.17 84.42 86.02 84.15 89.09 81.77 87.11 84.12 89.46 80.68 89.76 83.99 89.76 81.77 92.4 84.28 89.95 84.42 93.49 84.62 89.98 87.06 92.4 84.83 89.76 88.16 89.76 84.72 89.51"/><polygon class="cls-5" points="558.62 96.63 562.14 93.02 558.35 96.11 558.16 91.37 557.76 96 554.18 93.02 557.72 96.55 552.53 97 557.52 97 554.18 100.98 557.96 97.29 558.16 102.63 558.46 97.33 562.14 100.98 558.78 97 563.79 97 558.62 96.63"/><path class="cls-2" d="M507.72,118.31a.75.75,0,0,0,0-1.5.75.75,0,0,0,0,1.5Z"/><path class="cls-2" d="M559.64,38.89c.08,1.19,1.07,1.42,2.08,1.42a.75.75,0,0,0,0-1.5l-.52,0c-.27,0-.07-.06-.06.1-.07-1-1.57-1-1.5,0Z"/><path class="cls-2" d="M672.39,51.64a2.32,2.32,0,0,0,1.86-.89c.69-.68-.37-1.74-1.06-1.06a2.91,2.91,0,0,1-.48.45c.11-.07-.1,0,0,0h-.33a.75.75,0,0,0,0,1.5Z"/><path class="cls-2" d="M709.05,133c1,0,2-.23,2.09-1.41.07-1-1.43-1-1.5,0,0-.11.21-.16,0-.1a2.61,2.61,0,0,1-.56,0,.75.75,0,0,0,0,1.5Z"/><path class="cls-2" d="M596.39,188.31h.66a.75.75,0,0,0,0-1.5h-.66a.75.75,0,0,0,0,1.5Z"/><path class="cls-2" d="M561.05,27h.67a.75.75,0,0,0,0-1.5h-.67a.75.75,0,0,0,0,1.5Z"/><path class="cls-2" d="M492.39,110.31a.75.75,0,0,0,0-1.5.75.75,0,0,0,0,1.5Z"/><path class="cls-2" d="M657.05,61.64a.75.75,0,0,0,0-1.5.75.75,0,0,0,0,1.5Z"/><path class="cls-2" d="M621.72,127a.75.75,0,0,0,0-1.5.75.75,0,0,0,0,1.5Z"/><path class="cls-2" d="M608.47,192.89s0-.41,0-.27a.47.47,0,0,1-.41.36h.33a.75.75,0,0,0,0-1.5,1.17,1.17,0,0,0-1.42,1.42.75.75,0,0,0,1.5,0Z"/><path class="cls-2" d="M695.05,132.31a.75.75,0,0,0,0-1.5.75.75,0,0,0,0,1.5Z"/><path class="cls-2" d="M474.3,139.56c0,.09-.2.23-.27.31a1.6,1.6,0,0,0-.39,1c-.07,1,1.43,1,1.5,0,0-.09.2-.23.27-.31a1.6,1.6,0,0,0,.39-1c.07-1-1.43-1-1.5,0Z"/><path class="cls-2" d="M450.39,11h.66a.75.75,0,0,0,0-1.5h-.66a.75.75,0,0,0,0,1.5Z"/><path class="cls-2" d="M463.64,15.56v.66a.75.75,0,0,0,1.5,0v-.66a.75.75,0,0,0-1.5,0Z"/><path class="cls-2" d="M645.64,18.22v.67a.75.75,0,0,0,1.5,0v-.67a.75.75,0,0,0-1.5,0Z"/><path class="cls-2" d="M691.72,16.81h-.67a.75.75,0,0,0,0,1.5h.67a.75.75,0,0,0,0-1.5Z"/><path class="cls-2" d="M455.14,78.89c0,.19-.55.16-.32.26a1.11,1.11,0,0,1,.37.27c.71.66,1.77-.4,1.06-1.06a2,2,0,0,0-1.69-.69,1.21,1.21,0,0,0-.92,1.22c-.07,1,1.43,1,1.5,0Z"/><path class="cls-2" d="M513,15.56A1.42,1.42,0,0,0,514.39,17c1,.07,1-1.43,0-1.5-.06,0,.07.06.1.12-.08-.2,0,0,0,0a.75.75,0,0,0-1.5,0Z"/><path class="cls-2" d="M579.05,85a1.42,1.42,0,0,0,1.42-1.41c.07-1-1.43-1-1.5,0,0,.06,0-.08.12-.1-.2.07,0,0,0,0-1,0-1,1.53,0,1.5Z"/><path class="cls-2" d="M719.64,6.89v.23c0,.27.07.15.3-.38l.38-.1c.34.16.43.18.26,0s-.22-.21-.33-.32c-.68-.68-1.75.38-1.06,1.06.35.35.77.85,1.33.69s.62-.73.62-1.22a.75.75,0,0,0-1.5,0Z"/><path class="cls-2" d="M707.72,76.31a.75.75,0,0,0,0-1.5.75.75,0,0,0,0,1.5Z"/><path class="cls-2" d="M594.3,16.89v.67a.75.75,0,0,0,1.5,0v-.67a.75.75,0,0,0-1.5,0Z"/><path class="cls-2" d="M407.72,110.31h.67a.75.75,0,0,0,0-1.5h-.67a.75.75,0,0,0,0,1.5Z"/><path class="cls-2" d="M503.72,67h.67a.75.75,0,0,0,0-1.5h-.67a.75.75,0,0,0,0,1.5Z"/><path class="cls-2" d="M681,46.89c0,.06,0-.07.12-.1-.2.08,0,0,0,0a.75.75,0,0,0,0,1.5,1.43,1.43,0,0,0,1.42-1.42c.07-1-1.43-1-1.5,0Z"/><path class="cls-2" d="M697,14.22c0,.06,0-.07.12-.09-.2.07,0,0,0,0a.75.75,0,0,0,0,1.5,1.43,1.43,0,0,0,1.42-1.42c.07-1-1.43-1-1.5,0Z"/><path class="cls-2" d="M627.05,126.31h.67a.75.75,0,0,0,0-1.5h-.67a.75.75,0,0,0,0,1.5Z"/><path class="cls-2" d="M500.39,71.64a.75.75,0,0,0,0-1.5.75.75,0,0,0,0,1.5Z"/><path class="cls-2" d="M631.72,14.31a.75.75,0,0,0,0-1.5.75.75,0,0,0,0,1.5Z"/><path class="cls-2" d="M450.39,114.31h1.33a.75.75,0,0,0,0-1.5h-1.33a.75.75,0,0,0,0,1.5Z"/><path class="cls-2" d="M672.39,95a1.41,1.41,0,0,0,1.41-1.41c.07-1-1.43-1-1.5,0,0,.06.06-.08.12-.1-.2.07,0,0,0,0a.75.75,0,0,0,0,1.5Z"/><path class="cls-2" d="M708.52,48.09c.34.36.34.58,0,.94-.65.7.4,1.77,1.07,1.06a2.07,2.07,0,0,0,0-3.06c-.67-.71-1.72.35-1.07,1.06Z"/><path class="cls-2" d="M613.72,63.64a1,1,0,0,0,1-.4.88.88,0,0,0,.11-.42c0-.07,0,0,0,.07s.09-.09.13-.14c.66-.7-.4-1.76-1.06-1.06a1.82,1.82,0,0,0-.56,1.16c0-.13.07-.25.1-.38.22-.41.8-.33.32-.33a.75.75,0,0,0,0,1.5Z"/><path class="cls-2" d="M457.86,52.75l.66.67a.75.75,0,0,0,1.06-1.06l-.66-.67c-.69-.68-1.75.38-1.06,1.06Z"/><path class="cls-2" d="M631.86,100.09l.66.66a.75.75,0,0,0,1.07-1.06l-.67-.66a.75.75,0,0,0-1.06,1.06Z"/><path class="cls-2" d="M556.39,130.14h-.67a.75.75,0,0,0,0,1.5h.67a.75.75,0,0,0,0-1.5Z"/><path class="cls-2" d="M677.72,186.31a.75.75,0,0,0,0-1.5.75.75,0,0,0,0,1.5Z"/><path class="cls-2" d="M635.05,49.64h.67a.75.75,0,0,0,0-1.5h-.67a.75.75,0,0,0,0,1.5Z"/><path class="cls-2" d="M610.39,40.31a.75.75,0,0,0,0-1.5.75.75,0,0,0,0,1.5Z"/><path class="cls-2" d="M620.59,138.83l-.41-.1-.73,1.25.74.3c.9.36,1.28-1.09.4-1.45l-.74-.29c-.73-.29-1.23.75-.73,1.25a1.78,1.78,0,0,0,1.07.49.75.75,0,0,0,.4-1.45Z"/><path class="cls-2" d="M648.39,133.64a.75.75,0,0,0,0-1.5.75.75,0,0,0,0,1.5Z"/><polygon class="cls-5" points="684.61 23.67 687.74 20.46 684.37 23.21 684.2 19 683.84 23.11 680.67 20.46 683.81 23.6 679.2 24 683.64 24 680.67 27.54 684.02 24.26 684.2 29 684.47 24.29 687.74 27.54 684.75 24 689.21 24 684.61 23.67"/><polygon class="cls-5" points="633.68 79.44 636.02 77.04 633.5 79.1 633.38 75.95 633.11 79.02 630.73 77.04 633.08 79.39 629.64 79.69 632.95 79.69 630.73 82.33 633.24 79.88 633.38 83.42 633.58 79.91 636.02 82.33 633.78 79.69 637.12 79.69 633.68 79.44"/><polygon class="cls-5" points="704.33 90.29 707.85 86.68 704.06 89.78 703.87 85.04 703.47 89.67 699.89 86.68 703.43 90.22 698.24 90.67 703.24 90.67 699.89 94.65 703.67 90.96 703.87 96.29 704.17 91 707.85 94.65 704.49 90.67 709.5 90.67 704.33 90.29"/><polygon class="cls-5" points="191.52 80.34 195.63 76.13 191.2 79.75 190.98 74.21 190.51 79.61 186.34 76.13 190.47 80.25 184.41 80.78 190.24 80.78 186.34 85.43 190.74 81.12 190.98 87.35 191.34 81.17 195.63 85.43 191.7 80.78 197.56 80.78 191.52 80.34"/><polygon class="cls-5" points="21.89 35.32 25.18 31.95 21.64 34.84 21.47 30.41 21.09 34.73 17.75 31.95 21.05 35.24 16.2 35.67 20.87 35.67 17.75 39.39 21.27 35.94 21.47 40.92 21.75 35.98 25.18 39.39 22.04 35.67 26.73 35.67 21.89 35.32"/><path class="cls-6" d="M607.78,213.61A29.59,29.59,0,1,1,578.19,184,29.58,29.58,0,0,1,607.78,213.61Z"/><path class="cls-7" d="M594,197.89a5.08,5.08,0,1,1-5.08-5.08A5.07,5.07,0,0,1,594,197.89Z"/><path class="cls-7" d="M599,207.65a2.52,2.52,0,1,1-2.52-2.51A2.51,2.51,0,0,1,599,207.65Z"/><path class="cls-7" d="M589.1,212.64a3.22,3.22,0,1,1-3.22-3.22A3.22,3.22,0,0,1,589.1,212.64Z"/></g></g></svg>