<svg xmlns="http://www.w3.org/2000/svg" viewBox="0 0 602.66 96.39"><defs><style>.cls-1{fill:#754a64;}.cls-2{fill:#805066;}.cls-3,.cls-5{opacity:0.5;}.cls-4,.cls-5{fill:#3f2c36;}</style></defs><title>Ativo 12</title><g id="Camada_2" data-name="Camada 2"><g id="Layer_1" data-name="Layer 1"><polygon class="cls-1" points="0 51.93 118.2 12.71 229.45 76.91 349.5 11.59 441.5 71.36 523.7 0 602.66 61.59 602.66 96.39 27.11 96.39 0 51.93"/><polygon class="cls-1" points="103.9 47.31 18.56 69.48 34.05 93.86 245.11 93.53 103.9 47.31"/><polygon class="cls-2" points="351.62 11.98 346.95 18.46 353.95 24.93 346.95 24.93 346.95 32.16 342.54 34.65 364.95 53.09 389.17 73.81 480.17 92.49 470.29 78.67 351.62 11.98"/><g class="cls-3"><polygon class="cls-4" points="236.82 88.54 242.04 90.97 244.68 88.96 246.13 90.97 247.58 89.28 249.28 90.97 250.64 87.18 252.85 91.2 254.98 89.38 256.94 91.2 258.81 86.86 261.03 91.47 265.17 90.54 268.69 91.47 270.65 90.65 273.54 92.4 277.29 93.35 279.67 94.75 236.82 94.6 236.82 88.54"/><path class="cls-4" d="M27.11,94.61c.15-.14,2.24-10.41,2.53-10.22a29.81,29.81,0,0,1,1.75,3.48h0l4.08-6.71,1.46,2.41,1.31-.09s1,2.94,1,3,.73-1.35.73-1.35l1.32,1.5,1-1.69,1,1.11,3.21-6.7,2,5.5,5-10.55L59.54,80,61,77.59l1,3.47,1.46-2.26,2.19,3.86,2.18-5.6,1,6.7,1.75-2.17,1.89,1.69,2.34-6.46L77.63,83l2.18-3.24,2.48,3.67,1-1.69,1,2.12,1.16-2,.88,1.73,1.31-2.75L89,83.62s1.61-1.11,1.75-1S94,87.09,94,87.09l1.32-1.59s1.89,2.61,1.89,2.7,2.19-2.79,1.75-2.7l1.61,1.35,1.16-3.09,1.61,2.18,1.46-1.64.87,1.64,1.46-4.73,2.48,5.16s1.31-1.93,1.61-1.78A25.28,25.28,0,0,1,112.93,88l1.31-1.4.73,2.22,1.16-1.35,1.46,3.23,1.46-.72,1.32.58,1.16-4.1,2,1.93,1.75-7.05,1.75,3.77,1.61-2.27,2,4.05,1.17-.92,1.75,1.79,1.25,6.83Z"/><path class="cls-4" d="M270.4,88.41l5.22,2.43,2.64-2,1.45,2,1.44-1.69,1.71,1.69,1.36-3.79,2.21,4,2.13-1.83,2,1.83,1.87-4.34,2.22,4.61,4.14-.93,3.52.93,2-.82,4.44-1.77s3.55-.54,5.11.74,2.78,4.76,2.78,4.76l-45.74.5Z"/><path class="cls-4" d="M129.46,94.55c.15-.14,3.06-8.92,3.36-8.73a29,29,0,0,1,1.75,3.48h0l4.08-6.71L140.11,85l1.31-.09s1,2.94,1,3,.73-1.35.73-1.35l1.32,1.5,1-1.69,1,1.11,3.21-6.7,5.71,6.33,4.61-11.53,2.66,5.78L164.18,79l1,3.47,1.46-2.26,2.18,3.86,2.19-5.6,1,6.7L173.8,83l1.9,1.69L178,78.25l2.78,6.13L183,81.14l2.48,3.67,1-1.69,1,2.12,1.16-2,.88,1.73,1.31-2.74,1.31,2.84s1.61-1.11,1.75-1,3.21,4.43,3.21,4.43l1.32-1.59s1.89,2.61,1.89,2.7,2.19-2.8,1.75-2.7l1.61,1.35,1.16-3.09,1.61,2.18,1.46-1.64.87,1.64,1.46-4.73,2.48,5.16s1.31-1.93,1.6-1.79a24.8,24.8,0,0,1,1.75,3.43l1.32-1.4.73,2.22,1.16-1.35,1.46,3.23,1.46-.72,1.31.58,1.17-4.1,2,1.93,1.75-7,1.75,3.77,1.61-2.27,2,4,1.17-.92,1.75,1.79,1.77,5.41Z"/></g><path class="cls-5" d="M316.56,94.25c.15-.14,1.22-10.65,1.51-10.45a29,29,0,0,1,1.75,3.47h0l4.09-6.7L325.36,83l1.32-.1s1,2.94,1,3,.73-1.35.73-1.35l1.31,1.49,1-1.68,1,1.11L335,78.78l2.1,7.49,3.28-3.73,2,2.57,3.5-8.9,1.67,4.53L349.43,77l1,3.47,1.46-2.27,2.19,3.86,2.19-5.59,1,6.7L359.06,81l1.9,1.69,2.33-6.46,2.77,6.12,2.19-3.23,2.48,3.66,1-1.68,1,2.12,1.17-2,.87,1.74,1.31-2.75L377.44,83s1.6-1.11,1.75-1,3.21,4.44,3.21,4.44l1.31-1.59s1.9,2.6,1.9,2.7,2.18-2.8,1.75-2.7l1.6,1.35,1.17-3.09,1.6,2.17,1.46-1.64.88,1.64,1.45-4.73L398,85.78s1.32-1.93,1.61-1.79a26,26,0,0,1,1.75,3.43l1.31-1.4.73,2.21,1.17-1.35L406,90.12l1.46-.73,1.31.58,1.16-4.1L412,87.8l1.75-7,1.75,3.76,1.6-2.27,2,4,1.17-.91,1.75,1.78L423.33,94Z"/><path class="cls-5" d="M422.49,94.28c.15-.19,2.24-13.4,2.53-13.15a42,42,0,0,1,1.75,4.47h0L430.86,77l1.45,3.11,1.32-.13s1,3.79,1,3.92.73-1.74.73-1.74L436.69,84l1-2.17,1,1.43,3.21-8.63,2.1,9.64,3.28-4.81,2,3.32,3.5-11.46,1.67,5.83,1.85-4.82,1,4.47,1.46-2.92,2.19,5,2.19-7.2,1,8.63,1.75-2.8,1.9,2.18,2.33-8.32L473,79.26l2.19-4.16,2.48,4.72,1-2.17,1,2.73,1.17-2.61.87,2.24,1.31-3.54,1.32,3.66s1.6-1.43,1.75-1.24,3.21,5.71,3.21,5.71l1.31-2s1.9,3.36,1.9,3.48,2.18-3.6,1.75-3.48l1.6,1.74,1.17-4,1.6,2.79L500.14,81l.88,2.11L502.47,77,505,83.67s1.32-2.48,1.61-2.3a37.58,37.58,0,0,1,1.75,4.41l1.31-1.8.73,2.86,1.17-1.74L513,89.26l1.46-.93,1.31.74,1.17-5.28,2,2.49,1.75-9.07,1.75,4.85,1.6-2.92,2,5.21,1.17-1.18,1.75,2.3,1.26,8.8Z"/><path class="cls-2" d="M119.91,13.31,118.2,20l-5.34,2.67L108.27,30l4.59,2.67S83.68,51.31,85.67,51.31s18.23-4,18.23-4L221.08,84.54l8.37-7.63Z"/></g></g></svg>