<svg xmlns="http://www.w3.org/2000/svg" viewBox="0 0 460.87 57.92"><defs><style>.cls-1{fill:#3c5f7c;}.cls-2{fill:#4d7087;}.cls-3{fill:#608396;}</style></defs><title>Ativo 13</title><g id="Camada_2" data-name="Camada 2"><g id="Layer_1" data-name="Layer 1"><polygon class="cls-1" points="0 0.53 460.87 0 429.79 41.5 229.41 57.92 28.14 41.52 0 0.53"/><path class="cls-2" d="M308.3,31.77c2.92.07,5.06-1.83.38-2.06s-30.59-1.93-30.59-1.93,35.45-1.87,37-1.87c1.41,0-1.36-2.81-6.27-3.09l-41.41-2.37s24.44-3.29,28.38-2.93c4.25.37-31.93-3.42-31.93-3.42l28.82-2.82L267,7.25,311.75.17,288,.67,216,4.48l24.39,4.73L185.16,7.9l21.38,3.38L99.8,15.56l76.26,4.22s-62.58,2.33-61.25,4,46.34,4.94,38.59,4.14c0,0,28.9,2.1,14.52,2.87-29.08,1.55-90-.71-85.87.77,6.15,2.21,83.23,4.34,83.23,4.34s-43.37,5.76-36.72,5.76,50.56,1.58,50.56,1.58l-22.59,4.56,69.28,7.67,81-7.61-28.38-4.62s25.88-2,29.7-2.37,4.42-2.22-1.55-2.45-41.46-5.95-41.46-5.95S305.38,31.71,308.3,31.77Z"/><path class="cls-3" d="M275.75,35.11c1.88,0,3.25-1.54.25-1.73s-19.61-1.62-19.61-1.62,22.72-1.56,23.74-1.56-.87-2.35-4-2.58l-26.54-2s15.66-2.75,18.19-2.45c2.73.31-20.47-2.87-20.47-2.87L265.77,18l-16.49-3.37,28.2-3.31L258.56,9.64H247.81l-31.23,2.62,15.64,4-35.4-1.1L210.52,18,142.1,21.54,191,25.07S150.87,27,151.72,28.44s29.7,4.13,24.74,3.46c0,0,18.52,1.76,9.3,2.4-18.64,1.29-57.69-.6-55,.64,3.95,1.86,53.36,3.64,53.36,3.64s-27.8,4.82-23.54,4.82,32.41,1.32,32.41,1.32l-14.48,3.81L222.87,55l52-6.36-18.2-3.87s16.59-1.71,19-2,2.83-1.86-1-2.05-26.58-5-26.58-5S273.88,35.05,275.75,35.11Z"/></g></g></svg>