<svg xmlns="http://www.w3.org/2000/svg" viewBox="0 0 720 376.02"><defs><style>.cls-1{isolation:isolate;}.cls-2{fill:#151c30;}.cls-3{fill:#101721;}.cls-4{fill:#3f2c36;}.cls-5{fill:#212c44;}.cls-6{fill:#111828;}.cls-7{fill:#101726;}.cls-8{fill:#222642;}.cls-9{fill:#273250;}.cls-10,.cls-13{fill:#f88063;}.cls-11{fill:#fce1d9;opacity:0.7;}.cls-12{fill:#0b111e;}.cls-13{opacity:0.5;}.cls-14{opacity:0.1;}.cls-15{fill:#f4dfbb;}.cls-16{fill:#33242d;}.cls-17{fill:#101728;}.cls-18{fill:#773d3c;}.cls-19{fill:#c16256;}.cls-20{fill:#542f2a;}.cls-21{fill:#7a483f;}.cls-22{fill:#6d5867;}.cls-23{fill:#604a58;}.cls-24{fill:#721;opacity:0.2;mix-blend-mode:multiply;}.cls-25{fill:#1b243a;}</style></defs><title>Ativo 21</title><g class="cls-1"><g id="Camada_2" data-name="Camada 2"><g id="Layer_1" data-name="Layer 1"><polygon class="cls-2" points="0 224.37 84.65 268.57 360 295.11 597.11 274.19 720 233.61 720 376.02 0 376.02 0 224.37"/><path class="cls-3" d="M152.84,275.49l58.83,6.17,5,10.7-21.52,1.33,2.4,13.25c-5.23,6.75-44.72-2.79-44.72-2.79s5.46,8.33,8.16,9.86-20.54,8.11-20.54,8.11L161,330.18l-17.85,15.54s-7.21,7.56,14.13,10.8c34.05,5.17-39.49,19.5-39.49,19.5L0,375.21V332.28Z"/><path class="cls-4" d="M586.3,332.21c2.56,0,3.53-.35-1.11-.72-9.91-.78-12.17-1.56-14.39-1.72,0,0,27.79-.7,29.18-.67,3.56.07,1.24-1.63-3.06-1.74S566.67,326,566.67,326s21.33-.37,21.5-1.28-27.08-3-27.08-3l29.9-1.24s-37.65-1.79-45-1.69-27.67.9-27.67.9l-44.05,1.8,23.91,1.55-13.45,1.15s-30.81,1.62-32.36,2c-8.89,2,16,3.94,9.24,3.63,0,0,25.3.82,12.71,1.12-25.46.6-37.93-.21-35.34,1.29,2.75,1.58,35.5,1,35.5,1s-30.16,1.62-24.81,2.88c4.06,1,34.46-.34,34.46-.34S472.77,337.13,473,338s56,1.28,56,1.28,41.15-.71,44.16-1.57-2-1.94-2-1.94l26-.92c3.34-.13,3.87-.87-1.36-1s-34.6-1.69-34.6-1.69C583.44,332.22,574.69,332.09,586.3,332.21Z"/><path class="cls-2" d="M135.06,198.37l13.87,5.77s-2.22,2.4-4.76,1.41C136.56,202.62,135.06,198.37,135.06,198.37Z"/><path class="cls-2" d="M130.6,168l14.33,6.9a9.32,9.32,0,0,1-5.49,0C131.84,171.93,130.6,168,130.6,168Z"/><polygon class="cls-5" points="92.92 58.04 112.87 106.22 102.21 94.89 103.87 113.22 91.37 84.3 92.92 58.04"/><path class="cls-6" d="M92.54,56.55S87.73,81.44,75.21,95.22c-6.67,7.33,10-6.33,10-6.33L73.63,105.55l9.45-2.33s-.46,1.29-1.29,3c-1.25,2.56-3.32,6.07-5.92,7.67-4.33,2.66,10.34-8.34,10.34-8.34s5.33,9,2,13.67,5.63-2.33,4.33-16c-.67-7,4,8.67,6.67,12.33a43.3,43.3,0,0,0,0-6.66c-.34-1.67,4.66,6.66,4.66,6.66s-5.66-16-9.27-26.94c-.78-2.37-2.75-10.75,3.27-4.72C100.21,86.22,92.54,56.55,92.54,56.55Z"/><polygon class="cls-6" points="102.21 94.89 112.87 106.22 102.21 99.22 102.21 94.89"/><polygon class="cls-2" points="102.95 103.08 109.87 116.55 103.87 112.05 102.95 103.08"/><path class="cls-5" d="M121.62,230.72s44.11,31.85,58.43,39.35c10.8,5.65-15.33,0-15.33,0l19.24,15-17.71-6,13.29,10.15s-30.61,13-40.58-3.14c-2.57-4.17,3,12.39,3,12.39l-18.5-13.38,2.38,9.39-11.75-7.89,4.17,19.63s-2.43,2.24-8.43.34c-6.94-2.21-7.9-8.35-7.66-8.87.51-1.13-.52-33.55-4.27-46.57S101,220.33,121.62,230.72Z"/><path class="cls-6" d="M101.66,299.29l12.93-37.38,9.91.83-3.28-6.62,16.55,20.79-8.33-31.17s8.64,5.14,14.39,6.64a14,14,0,0,0,10.59-1.83L139,244.71l-11.55-10.22-4.75,2.62-3.07,8,1.37,4.62-5.56-4.37-43.29,17.9Z"/><path class="cls-5" d="M121.17,198.37s20.83,27.68,33.58,35.26c7.4,4.4-10,0-10,0l12.49,13.27-11.49-5.31,8.63,9s-21.24-2-26.88-10.62.34,20.24.34,20.24L118,246.9l1.54,8.29-7.63-7-11.83,32a28.41,28.41,0,0,0-3.5-12.42c-2.94-5-7.87-18.27-7.87-18.27.33-1,15.13-21.16,12.7-32.65S107.78,189.19,121.17,198.37Z"/><path class="cls-6" d="M100.44,253.74l9.68-37.68L120.9,227.6l-3.71-11.86,11.41,15.84-4.81-26.34s7.08,5.42,12.84,6.92,13.8.26,13.8.26l-18.64-7.93-10.62-6.12-.75,11.25-8-4.75,1.37,4.62-5.56-4.37L91.37,215.87Z"/><path class="cls-6" d="M86.78,98.47l-6,5.32s-16.5,19.68-26.25,24.68,9.5-1.25,9.5-1.25-3.76,9.25-12.26,11,16.26,4.5,20.51,0,.23,9.34-25.5,22.25c-8.66,4.34,16.5-1.25,22.5-4.75,0,0,.18,4.43-16.25,11.25-10.25,4.25,18-1.25,18-1.25s-5.5,4.75-6,5,8.25-2.25,6.25,2.25,15.41,1.25,20.08,8,7.92,5.25,7.92,5.25L93,119.47s-4-20.25-6.26-21"/><path class="cls-5" d="M112.82,160.78s13.24,25.58,37.94,34.72c8.07,3-9.95,0-9.95,0l8.12,8.64c-1.24,3-14.24-5.77-14.24-5.77l15.74,14s-21.23-2-26.87-10.61.33,20.23.33,20.23l-9.84-13.27,1.54,8.29-7.63-7L100.44,242s-15.64-16.54-16.5-15.94c-6.52,4.53,16-35.76,13.52-47.26S99.44,151.6,112.82,160.78Z"/><path class="cls-6" d="M94.83,215.91l12.67-34.79,9.44,13.12L115,183.12l9.5,12.55-4.37-22.55s7.08,5.42,12.83,6.91a13.71,13.71,0,0,0,10.19-1.36l-15-6.3-10.63-6.13-.75,11.25-8-4.75,1.38,4.63L104.57,173l-9.74,13.37Z"/><path class="cls-6" d="M83.25,161.36l-3.68.11s-28.34,16.3-44.26,19.36,15.07.62,15.07.62-7.05,8.44-20.61,8.51,25,7.65,32.2,4-.8,9.32-42.79,17.09c-14.12,2.62,26.06,2,35.91-.31,0,0-.25,4.44-26.9,8C11.57,221,56.6,221,56.6,221s-9.22,3.64-10,3.79,13.23-.62,9.53,3.45,24.05,4.26,30.54,11.87l.14-15.22,13.66-43.42s-13.68-18.94-17.19-20.13"/><path class="cls-5" d="M109.93,133.37s17.26,22.12,32.81,30c8.8,4.48-8.61,0-8.61,0l10.8,11.48-9.94-4.6,8.16,8.38s-19.06-2.35-23.94-9.81.29,17.5.29,17.5L111,174.89l1.33,7.17-6.6-6s-4.88,16.63-6.73,13.53c-3.28-5.51-7.8-13.26-7.61-13.81.28-.86,3.91-16.57,1.81-26.51S98.35,125.44,109.93,133.37Z"/><path class="cls-6" d="M91.37,261.57l6.18-30.06s-17.85-17.27-22.3-18.58l-.3,2.42.3-2.42s-35.08,15.46-55,18,19,1.1,19,1.1S30.62,240.3,13.6,240s31.61,8.47,40.57,5.05c8.66-3.3-.07,8.49-48.06,15.12v2.5c12,.44,32.67.19,40-1,0,0-.18,4.45-33.55,7.15C-8.28,270.47,48.3,272,48.3,272s-13.47,3.15-12.5,3.48c22.52,7.78-8.35,10.86-12.86,14.84s53.26-3.91,61.66,3.94,17.06,5.05,17.06,5.05Z"/><path class="cls-6" d="M98.57,141.55l.42-2.91V158.9s2.14-14.62,4.88-11.32c2,2.44,5.94,1.69,5.94,1.69L107.54,144h0c1.7,5.59,10.76,8.9,10.76,8.9s-9.1-19-5.73-15,18,1.5,18,1.5l-12.66-3.76-7.82-6.51-6.55,6.77,1.17,6.26L99,138.64"/><path class="cls-5" d="M103,100.55s21.59,21.17,28.59,26.17-7.5,0-7.5,0l9.41,10-8.66-4,6.5,6.75s-16-1.5-20.25-8,.25,15.25.25,15.25l-7.42-10L105,143l-5.75-5.25-3,16.57s-9.76-16.07-9.51-16.82,6.41-14.68,4.58-23.34S92.86,93.64,103,100.55Z"/><polygon class="cls-6" points="95.27 98.47 102.95 120.66 102.95 111.09 97.1 96.91 95.27 98.47"/><polygon class="cls-6" points="91.37 146.91 92.1 141.57 99.98 148.41 98.98 158.9 95.27 150.24 91.37 146.91"/><path class="cls-7" d="M66.29,208.68l20.41,8.5s-3.27,3.53-7,2.08C68.49,214.94,66.29,208.68,66.29,208.68Z"/><path class="cls-7" d="M59.73,164l21.08,10.14s-4.33,1.42-8.08,0C61.54,169.78,59.73,164,59.73,164Z"/><polygon class="cls-8" points="4.27 2.19 33.63 73.09 17.94 56.41 20.39 83.39 1.99 40.83 4.27 2.19"/><path class="cls-7" d="M20.39,86.82S12.05,63.28,6.74,47.17c-1.15-3.48-4-15.81,4.82-7C15,43.66,3.71,0,3.71,0S2.56,5.92,0,14.31V89.47a37.47,37.47,0,0,0,3.71-20.8c-1-10.3,5.89,12.76,9.81,18.15,0,0,.49-7.36,0-9.81S20.39,86.82,20.39,86.82Z"/><polygon class="cls-7" points="17.94 56.41 33.63 73.09 17.94 62.78 17.94 56.41"/><polygon class="cls-2" points="19.03 68.46 29.22 88.29 20.39 81.67 19.03 68.46"/><path class="cls-8" d="M46.5,256.3s64.91,46.86,86,57.9c15.89,8.32-22.56,0-22.56,0l28.3,22.13-26-8.85,19.55,14.93s-45,19.13-59.71-4.63C68.24,331.65,76.49,356,76.49,356L49.27,336.33l3.51,13.83-17.3-11.62,6.14,28.89s-3.57,3.3-12.4.49C19,364.67,17.59,355.63,17.94,354.87c.75-1.66-.76-49.37-6.27-68.53S16.15,241,46.5,256.3Z"/><path class="cls-7" d="M72.07,276.88l-17-15-7,3.86-4.51,11.74,2,6.8L37.4,277.8,0,293.27v43L17.13,357.2l19-55,14.58,1.23-2.18-8,21.71,28.8L58,278.4s12.71,7.56,21.17,9.77,20.32.38,20.32.38Z"/><path class="cls-8" d="M99,280.1,80.61,260.58s25.53,6.46,14.64,0c-18.76-11.15-49.41-51.89-49.41-51.89-19.7-13.51-32.6,10.39-29,27.3,3,14-11.54,36.89-16.82,45.06v7.85c2.44,6.26,6.76,17,9.72,22a41.94,41.94,0,0,1,5.15,18.28l17.41-47.13,11.23,10.25L41.23,280.1l14.48,19.53s-8.79-42.47-.49-29.78,39.55,15.62,39.55,15.62l-12.7-13.18Z"/><path class="cls-7" d="M15.33,290.17l14.25-55.45,15.87,17L40,234.25l16.8,23.3L49.7,218.8s10.42,8,18.89,10.18,20.31.39,20.31.39L61.47,217.7l-15.63-9-1.1,16.55-11.78-7,2,6.81-8.19-6.44L2,234.44Z"/><path class="cls-7" d="M4.45,92.58S2.38,82,0,73.25V181a10.19,10.19,0,0,1,2,2.11c6.87,9.93,11.65,7.73,11.65,7.73Z"/><path class="cls-8" d="M89.39,204.47C53,191,33.56,153.38,33.56,153.38,13.86,139.87,7.37,163,11,179.88c1.68,7.93-4.69,25.17-10.95,40.56v36.72c6.93,6.84,15.33,15.72,15.33,15.72L26.41,226,37.64,236.2,35.36,224l14.48,19.52s-8.78-42.47-.48-29.77S88.9,229.37,88.9,229.37L65.73,208.69s19.13,12.87,21,8.49l-12-12.71S101.26,208.86,89.39,204.47Z"/><path class="cls-7" d="M7.09,234.5l18.64-51.2,13.88,19.31-2.84-16.37,14,18.47-6.43-33.18s10.42,8,18.89,10.18a20.17,20.17,0,0,0,15-2l-22.1-9.28-15.63-9L39.35,178l-11.78-7,2,6.8-8.19-6.44L7.09,191Z"/><path class="cls-7" d="M0,164v68.59l15.33-48.74S7.24,172.65,0,164Z"/><path class="cls-8" d="M29.3,113.05s25.4,32.54,48.29,44.19c13,6.59-12.67,0-12.67,0l15.89,16.89-14.63-6.75,12,12.32s-28-3.45-35.22-14.43.42,25.75.42,25.75L30.86,174.13l2,10.56-9.72-8.87s-7.18,24.47-9.9,19.9C8.38,187.61,1.73,176.21,2,175.4c.42-1.27,5.76-24.38,2.66-39S12.26,101.36,29.3,113.05Z"/><path class="cls-7" d="M17.13,357.2,2,301.7l9.09-44.24S6.13,252.68,0,247.1V355.28A25,25,0,0,0,17.13,357.2Z"/><path class="cls-7" d="M12.59,125.08l.61-4.28v29.8s3.15-21.5,7.19-16.66c3,3.6,8.74,2.5,8.74,2.5l-3.35-7.75h0c2.51,8.23,15.84,13.1,15.84,13.1s-13.39-28-8.43-22.09,26.54,2.2,26.54,2.2l-18.64-5.53-11.51-9.59-9.64,10L21.66,126,13.2,120.8"/><path class="cls-8" d="M63.91,118,50.06,103.25s21.34,7.36,11,0S19,64.75,19,64.75C4.19,54.57-.7,72,2,84.72c1.3,6.13-.12,14-2,20.73v22.78c4.06,7.06,9.24,15.59,9.24,15.59l4.4-24.38,8.46,7.72L20.39,118,31.3,132.68s-6.62-32-.37-22.44S60.73,122,60.73,122l-9.56-9.93Z"/><polygon class="cls-7" points="7.73 61.69 19.03 94.34 19.03 80.25 10.43 59.38 7.73 61.69"/><polygon class="cls-7" points="1.99 132.96 3.07 125.11 14.66 135.17 13.2 150.6 7.73 137.86 1.99 132.96"/><path class="cls-2" d="M587.33,202.78l-14.47,6.63a4,4,0,0,0,4.31,1C584.77,207.47,587.33,202.78,587.33,202.78Z"/><path class="cls-2" d="M590.73,172.85l-14.33,6.89a9.23,9.23,0,0,0,5.49,0C589.49,176.78,590.73,172.85,590.73,172.85Z"/><polygon class="cls-9" points="628.41 62.9 608.46 111.08 619.13 99.74 617.46 118.08 629.96 89.16 628.41 62.9"/><path class="cls-2" d="M628.8,61.41s4.8,24.89,17.33,38.67c6.67,7.33-10-6.34-10-6.34l11.57,16.67-9.45-2.33s.46,1.28,1.3,3c1.24,2.56,3.32,6.07,5.91,7.66,4.34,2.67-10.33-8.33-10.33-8.33s-5.33,9-2,13.67-5.64-2.33-4.33-16c.66-7-4,8.66-6.67,12.33a43.42,43.42,0,0,1,0-6.67c.33-1.66-4.67,6.67-4.67,6.67s5.67-16,9.28-26.95c.78-2.36,2.74-10.74-3.28-4.72C621.13,91.08,628.8,61.41,628.8,61.41Z"/><polygon class="cls-2" points="619.13 99.74 608.46 111.08 619.13 104.08 619.13 99.74"/><polygon class="cls-2" points="618.38 107.93 611.46 121.41 617.46 116.91 618.38 107.93"/><path class="cls-9" d="M599.72,235.58s-44.11,31.85-58.44,39.35c-10.8,5.65,15.33,0,15.33,0l-19.23,15,17.7-6L541.79,294.1s30.61,13,40.58-3.15c2.58-4.17-3,12.4-3,12.4L597.84,290l-2.39,9.39,11.76-7.89L603,311.1s1.63,4.33,7.63,2.43c6.94-2.21,8.7-10.45,8.46-11-.51-1.12.51-33.54,4.26-46.57S620.34,225.18,599.72,235.58Z"/><path class="cls-2" d="M619.68,304.15l-12.93-37.38-9.92.83,3.29-6.62-16.55,20.79,8.33-31.17s-8.64,5.14-14.39,6.64-13.8.26-13.8.26l18.63-7.93,11.56-10.22,4.75,2.62,3.06,8-1.37,4.63,5.56-4.38,43.29,17.91Z"/><path class="cls-9" d="M600.17,203.22s-20.83,27.69-33.58,35.27c-7.4,4.39,9.95,0,9.95,0l-12.49,13.27,11.5-5.31-8.63,9s21.23-2,26.87-10.62-.33,20.24-.33,20.24l9.84-13.27-1.55,8.29,7.63-7,11.83,32a28.63,28.63,0,0,1,3.5-12.43c2.94-5,7.87-18.26,7.87-18.26-.33-1-15.12-21.16-12.69-32.65S613.55,194.05,600.17,203.22Z"/><path class="cls-2" d="M620.9,258.6l-9.68-37.68-10.78,11.54,3.71-11.86-11.42,15.83,4.81-26.33s-7.08,5.42-12.83,6.92-13.38.63-13.38.63l18.21-8.3,10.63-6.13.75,11.25,8-4.75-1.38,4.63,5.57-4.38L630,220.72Z"/><path class="cls-2" d="M634.55,103.33l6,5.31s16.5,19.69,26.25,24.69-9.5-1.25-9.5-1.25,3.76,9.25,12.25,11-16.25,4.5-20.5,0-.23,9.33,25.5,22.25c8.65,4.34-16.5-1.25-22.5-4.75,0,0-.19,4.43,16.25,11.25,10.25,4.25-18-1.25-18-1.25s5.5,4.75,6,5-8.25-2.25-6.25,2.25-15.42,1.25-20.09,8-7.91,5.25-7.91,5.25l6.25-66.75s4-20.25,6.25-21"/><path class="cls-9" d="M608.51,166.06s-13.23,25.58-37.94,34.72c-8.07,3,10,0,10,0l-8.13,8.63c1.25,3,14.25-5.77,14.25-5.77L570.91,217.7s21.23-2,26.87-10.62-.33,20.24-.33,20.24l9.84-13.27-1.55,8.29,7.63-7,7.53,31.89s15.64-16.54,16.5-15.94c6.51,4.53-16-35.77-13.52-47.26S621.9,156.88,608.51,166.06Z"/><path class="cls-2" d="M626.5,220.77,613.83,186,604.4,199.1,606.33,188l-9.5,12.56L601.21,178s-7.09,5.42-12.84,6.92a13.67,13.67,0,0,1-10.18-1.37l15-6.3,11.92-6.12-.55,11.25,8-4.75-1.37,4.62,5.56-4.37,9.73,13.37Z"/><path class="cls-2" d="M642.06,168.74l-.3-2.41s28.34,16.3,44.27,19.35-15.07.62-15.07.62,7,8.45,20.6,8.52-25,7.64-32.19,4,.79,9.31,42.78,17.09c14.13,2.62-26.06,2-35.91-.31,0,0,.26,4.44,26.9,8,16.62,2.22-28.41,2.29-28.41,2.29s9.22,3.63,10,3.78-13.23-.62-9.53,3.46-24,4.26-30.54,11.87l-.14-15.22L620.9,186.35s13.68-18.94,17.19-20.14"/><path class="cls-9" d="M611.41,138.23s-17.26,22.12-32.82,30c-8.8,4.47,8.61,0,8.61,0l-10.8,11.47,9.94-4.59-8.15,8.37s19.06-2.34,23.93-9.8-.28,17.5-.28,17.5l8.51-11.48L609,186.92l6.6-6s4.89,16.63,6.73,13.53c3.28-5.52,7.8-13.26,7.62-13.82-.29-.86-3.92-16.56-1.81-26.5S623,130.29,611.41,138.23Z"/><path class="cls-2" d="M630,266.43l-6.17-30.06s17.84-17.27,22.3-18.58l.3,2.41-.3-2.41s35.08,15.46,55,18-19,1.1-19,1.1,8.58,8.25,25.61,7.89-31.61,8.48-40.58,5.06c-8.66-3.3.08,8.48,48.06,15.12v2.49c-12,.45-32.66.2-40-1,0,0,.19,4.45,33.55,7.16,20.81,1.69-35.77,3.2-35.77,3.2s13.46,3.15,12.49,3.48c-22.52,7.78,8.35,10.86,12.87,14.83s-53.27-3.9-61.67,4-17.05,5-17.05,5Z"/><path class="cls-2" d="M622.76,146.41l-.41-2.91v20.25s-2.14-14.61-4.89-11.32c-2,2.45-5.94,1.7-5.94,1.7l2.28-5.27h0c-1.71,5.59-10.76,8.91-10.76,8.91s9.09-19,5.73-15-18,1.5-18,1.5l12.66-3.76,7.83-6.52,6.55,6.78L616.6,147l5.75-3.5"/><path class="cls-9" d="M618.38,105.41s-21.58,21.17-28.58,26.17,7.5,0,7.5,0l-9.41,10,8.66-4-6.5,6.75s16-1.5,20.25-8-.25,15.25-.25,15.25l7.41-10-1.16,6.25,5.75-5.25,3,16.57s9.76-16.07,9.51-16.82S628.13,127.64,630,119,628.47,98.49,618.38,105.41Z"/><polygon class="cls-2" points="626.07 103.33 618.38 125.52 618.38 115.94 624.23 101.77 626.07 103.33"/><polygon class="cls-2" points="629.96 151.77 629.23 146.43 621.35 153.27 622.35 163.75 626.07 155.09 629.96 151.77"/><path class="cls-2" d="M652.92,231.69,637,238.3s2.54,2.75,5.46,1.63C651.21,236.56,652.92,231.69,652.92,231.69Z"/><path class="cls-2" d="M658,196.9l-16.41,7.9a10.7,10.7,0,0,0,6.29,0C656.62,201.41,658,196.9,658,196.9Z"/><polygon class="cls-9" points="701.19 70.97 678.34 126.15 690.56 113.17 688.65 134.16 702.97 101.04 701.19 70.97"/><path class="cls-2" d="M720,134.41a14.39,14.39,0,0,1-2.46-2.42c.93.72,1.78,1.38,2.46,1.94Z"/><path class="cls-2" d="M688.65,136.84s6.49-18.33,10.62-30.86c.9-2.71,3.15-12.31-3.75-5.41-2.67,2.67,6.11-31.31,6.11-31.31s5.13,26.52,18.37,42.57v2.26c-3.93-2.84-10-7.8-10-7.8l10,14.36v3.92l-7.54-1.86a37.26,37.26,0,0,0,1.49,3.44,31.91,31.91,0,0,0,3.59,5.84c-3.73-2.91-8.66-6.61-8.66-6.61s-6.1,10.31-2.29,15.66-6.45-2.67-5-18.33c.76-8-4.58,9.93-7.64,14.13,0,0-.38-5.73,0-7.64S688.65,136.84,688.65,136.84Z"/><polygon class="cls-2" points="690.56 113.17 678.34 126.15 690.56 118.13 690.56 113.17"/><polygon class="cls-2" points="689.71 122.55 681.78 137.98 688.65 132.83 689.71 122.55"/><path class="cls-9" d="M668.33,268.76s-50.53,36.47-66.94,45.07c-12.37,6.47,17.56,0,17.56,0l-22,17.22,20.28-6.89L602,335.78s35.06,14.89,46.48-3.6c2.95-4.78-3.48,14.2-3.48,14.2l21.19-15.33-2.73,10.76,13.46-9-4.77,22.49s2.78,2.56,9.65.38c8-2.53,9.05-9.56,8.78-10.16-.59-1.29.59-38.43,4.88-53.34S692,256.85,668.33,268.76Z"/><path class="cls-2" d="M648.42,284.78l13.24-11.71,5.44,3,3.51,9.14-1.57,5.3,6.37-5L720,303.94v8.16l-28.81,35.2-14.81-42.82-11.36.95,3.76-7.59-19,23.82,9.55-35.7s-9.9,5.88-16.49,7.6-15.8.3-15.8.3Z"/><path class="cls-9" d="M668.84,231.7S645,263.41,630.38,272.09c-8.48,5,11.4,0,11.4,0l-14.31,15.2,13.17-6.08-9.88,10.25s24.32-2.27,30.78-12.15-.38,23.17-.38,23.17l11.27-15.19-1.77,9.49,8.73-8L693,325.5a32.49,32.49,0,0,1,4-14.23c3.36-5.77,9-20.92,9-20.92-.38-1.14-17.33-24.24-14.54-37.4S684.17,221.18,668.84,231.7Z"/><path class="cls-2" d="M692.59,295.12,681.5,252l-12.35,13.22,4.25-13.58-13.08,18.13,5.51-30.16s-8.11,6.21-14.7,7.92-15.81.3-15.81.3l21.35-9.08,12.17-7,.86,12.88,9.16-5.44-1.57,5.3,6.37-5L703,251.74Z"/><path class="cls-2" d="M701.06,141.32s4.53-23.19,7.16-24l6.87,6.08S717,125.66,720,129v76.91c-5.75.76-13.9,1.35-17,5.89-5.35,7.73-9.07,6-9.07,6Z"/><path class="cls-9" d="M678.4,188.64s-15.16,29.3-43.46,39.77c-9.24,3.42,11.4,0,11.4,0L637,238.3c1.42,3.42,16.31-6.6,16.31-6.6l-18,16.09s24.32-2.28,30.78-12.16-.38,23.18-.38,23.18L677,243.61l-1.78,9.5,8.74-8,8.63,36.53s17.91-18.94,18.89-18.25c7.46,5.18-18.27-41-15.48-54.14S693.73,178.13,678.4,188.64Z"/><path class="cls-2" d="M699,251.79l-14.51-39.85-10.8,15,2.21-12.74L665,228.6l5-25.83s-8.11,6.21-14.7,7.93a15.73,15.73,0,0,1-11.67-1.57l17.21-7.22,12.17-7,.85,12.88,9.17-5.44-1.58,5.3,6.38-5L699,217.94Z"/><path class="cls-2" d="M712.27,189.3l4.56,2.9-.34-2.77s1.3.75,3.51,2v82.24c-5,1.44-9.38,3.28-11.61,5.89l-.16-17.43-15.64-49.73S708.25,190.67,712.27,189.3Z"/><path class="cls-9" d="M681.71,157.25s-19.76,25.33-37.58,34.4c-10.08,5.13,9.86,0,9.86,0L641.62,204.8,653,199.54l-9.34,9.59s21.83-2.69,27.42-11.23-.33,20-.33,20l9.75-13.15L679,213l7.56-6.9s5.59,19,7.71,15.48c3.76-6.31,8.93-15.18,8.72-15.81-.33-1-4.48-19-2.07-30.36S695,148.16,681.71,157.25Z"/><path class="cls-2" d="M703,304.09l-7.08-34.43S713.31,252.81,720,249v89.28c-4.32.64-7.63,1.65-9.28,3.19-9.62,9-19.53,5.79-19.53,5.79Z"/><path class="cls-2" d="M694.72,166.62l-.47-3.33v23.19s-2.46-16.73-5.6-13c-2.33,2.8-6.8,1.94-6.8,1.94l2.6-6h0c-2,6.4-12.32,10.2-12.32,10.2s10.42-21.8,6.56-17.2S658,164.14,658,164.14l14.51-4.3,9-7.47,7.5,7.77-1.34,7.16,6.59-4"/><path class="cls-9" d="M689.71,119.66S665,143.9,657,149.63s8.59,0,8.59,0l-10.78,11.45,9.92-4.58-7.44,7.73s18.32-1.72,23.19-9.16-.28,17.47-.28,17.47l8.49-11.46-1.34,7.16,6.59-6,3.43,19s11.17-18.41,10.89-19.27-7.35-16.81-5.25-26.73S701.26,111.74,689.71,119.66Z"/><polygon class="cls-2" points="698.5 117.28 689.71 142.69 689.71 131.72 696.4 115.48 698.5 117.28"/><polygon class="cls-2" points="702.97 172.75 702.13 166.65 693.11 174.47 694.25 186.48 698.5 176.56 702.97 172.75"/><path class="cls-10" d="M526.59,328.94h-9.25s-5.26-3.12-5.63-11.93c-.27-6.45.67.84,4.66,4.14,2,1.6-1.28-3.16-1.34-11.22,0-3.53,1-7.59,2.8-12.15.61-1.59,5.89,8.8,5.52,20,0,0,2.27-7.06,1.78-13.39s-1.82-12.17-1.7-13.15c.26-2.07,9.25,7.8,9,22.16s1.46,3.16,2.92.48,4.09-4.43,2.92-8.52c-.49-1.7,2.6,3.27,3.41,11.2,1,9.5-4.87,12.42-4.87,12.42Z"/><path class="cls-11" d="M536.16,317.24c.52,4-1,8.12-4.06,8.71-.73.13-1.35-1.52-1.5-3.83-.35-5.13-4.61-8.18-3.87-6.34,1.55,3.83-2.14,8.55-2.16,9.67-.55-.46-1.76-1.72-2.39-4.92-.34-1.71-2.67-4.75-2.67-4.75-1.07,2.79-.76,6.26-.23,8.94v0a8.22,8.22,0,0,1-4.27-2.57c-2.25-2.42.92,4.94,4.91,6.83h.52l14.29.05C541.8,324.24,535.9,315.25,536.16,317.24Z"/><path class="cls-12" d="M546,330.18a2.1,2.1,0,0,1-2.1,2.1H530.45a2.1,2.1,0,0,1-2.1-2.1h0a2.1,2.1,0,0,1,2.1-2.1h13.46a2.1,2.1,0,0,1,2.1,2.1Z"/><path class="cls-12" d="M527.17,330.18a2.1,2.1,0,0,1-2.1,2.1H511.6a2.1,2.1,0,0,1-2.1-2.1h0a2.1,2.1,0,0,1,2.1-2.1h13.47a2.1,2.1,0,0,1,2.1,2.1Z"/><path class="cls-12" d="M537.18,332.28a2.1,2.1,0,0,1-2.1,2.1H521.61a2.1,2.1,0,0,1-2.1-2.1h0a2.1,2.1,0,0,1,2.1-2.1h13.47a2.1,2.1,0,0,1,2.1,2.1Z"/><path class="cls-13" d="M570,262.53,556,270.69l11.37.17L556,280.53l17.21-1s-16.38,10.84-21.55,12.83c0,0,13.15-3,18.41-7.24s5.76-8.07,5.76-8.07l-13.46.4,10-9.3L560.5,269.2Z"/><polygon class="cls-13" points="592.86 279.53 588.08 283.69 585.19 292.36 600.63 281.66 600.63 293.69 609.57 283.73 601.67 288.34 602.18 277.44 588.19 288.34 592.86 279.53"/><path class="cls-13" d="M576.11,250.86s17.36-7.22,18.94-11.93c.73-2.16,3.27,10.11,3.27,15.43,0,1.5,7-7.47,7-7.47V254l5.89-3.88,9.34,22.92L613,247.69l-6.25,2v-6.87l-6.21,4.07L596.73,236S585,246.26,576.11,250.86"/><path class="cls-13" d="M645,262.53l-10.81,9.22,9.49-.72-7.33,9.66,7.33-1.16L637,288.46s8.29-2.6,11-5.1l-5.17.5,3.91-6.81-6.24.4,5.33-8.25h-6.16Z"/><polygon class="cls-13" points="602.35 208.03 600.43 219.78 608.92 209.72 608.46 217.94 614.92 213.9 622.05 239.05 617.46 210.65 610 213.53 610 205.6 602.35 213.63 602.35 208.03"/><polygon class="cls-13" points="617.75 318.77 606.45 325.5 620.9 322.12 606.75 334.38 622.76 338.27 611.25 333.27 624.88 320.4 615.41 321.52 617.75 318.77"/><path class="cls-13" d="M627.47,300.2c-.22.2-23.93,14.33-23.93,14.33l20.09-3.13-5.88,7.38,9.33-8.86-15.33,1.48Z"/><path class="cls-13" d="M583.57,226.86c.1.33-11.9,9.09-11.9,9.09l10.83-2.38L574,245l13.89-14.08-9.7,1.55Z"/><path class="cls-13" d="M587.89,193.36l-8.55,5.17,4.27-.67-6.26,9.08,13-6.41s-13.15,14.39-12.14,13.65c.36-.27,15.64-10.41,15.64-10.41l-5.94,1.83,4.69-7.32-10.91,4.94,4.6-7.29Z"/><polygon class="cls-13" points="605.88 172.15 605.13 184.53 612.45 174.28 611.21 182.22 621.35 172.85 613.8 178.03 613.8 171.1 606.45 177.81 605.88 172.15"/><g class="cls-14"><path class="cls-15" d="M514.5,295c2.5-5.5,5-14,5-20.5,0-13.5-8-19.5-15-30-14.5-22.5-5.25-43.86,9.75-64.36,14.5-20.5,17.37-39.7-10.75-72.64,5.5,4,34,10.41,39.31,25.67,6.69,19.17-5.15,28.15-9.15,39.65-4,10-16.32,19.37-15.32,30.37,1.5,14.5,25.16,17.81,27.66,30.31,2.5,14.5-10,26.5-12.5,39.5-2,11.5,6.5,25.5.5,35.5,1.5-6.5,3.5-16.5-3.5-20.5-7-4.5-13.5,3-15,7"/></g><g class="cls-14"><path class="cls-15" d="M513,169.53c16.5-20.67,2.75-40.2-12-48.5,6.5,7,12,15.9,14,25.4,1,3.5.8,19.78-2,23.1"/></g><g class="cls-14"><path class="cls-15" d="M541.33,216.75c-5,1.38-11.17-2.29-12.67-4.66-3.53-5.6-5.63-10.88-3.33-16.67,5.33-13.46,20.3-22.76,21.67-31.67-1.34,10.67-9.34,19-14,28-4.34,8.34-3,22.67,8.33,25"/></g><polygon class="cls-12" points="416.13 266.68 416.13 267.07 421.81 330.74 404.39 334.35 416.13 266.68"/><polygon class="cls-16" points="416.13 266.48 329.55 266.48 328 268.89 282.48 339.66 367.55 342.14 416.13 266.48"/><polygon class="cls-17" points="367.55 342.14 322.48 360.99 201.32 362.66 282.48 339.66 367.55 342.14"/><polygon class="cls-17" points="449.4 323.56 437.34 325.29 437.93 326.55 449.69 324.53 449.4 323.56"/><path class="cls-18" d="M343,352.39c-.3.37.22.9.54.53q15.41-18.41,30.83-36.8l-1.34.43Z"/><path class="cls-19" d="M416.09,266v-.64a.3.3,0,0,0-.22.1l-42.8,51.09,1.34-.43,14.75-17.62,24.21-28.9,2.44-2.91a2,2,0,0,0,.24-.34v0C415.93,266.13,416,266,416.09,266Z"/><path class="cls-18" d="M446.52,318.47l-1.14-.48q1.8,3.18,3.61,6.35c.23.42.88.05.64-.38Z"/><path class="cls-10" d="M416.46,265.54a.38.38,0,0,0-.37-.18V266c.07,0,.1.07,0,.27v.15l6.76,11.9L445.38,318l1.14.48Z"/><path class="cls-20" d="M257.84,345.62c-.33.36.2.89.53.53l52.22-58c-.48.16-.95.33-1.43.47Z"/><path class="cls-21" d="M329.28,266.21l-20.12,22.37c.48-.14.95-.31,1.43-.47l19.22-21.37C330.14,266.38,329.61,265.85,329.28,266.21Z"/><path class="cls-22" d="M416.13,266.68s19.8,52.58,21.8,60.64l-16.68,3.42Z"/><polygon class="cls-23" points="404.39 334.48 367.14 342.27 416.13 266.61 404.39 334.48"/><path class="cls-24" d="M415.69,267.11l-11.3,67.23s-20.54,1-23.7-7.8C380.69,326.54,405.84,298.63,415.69,267.11Z"/><path class="cls-10" d="M416.29,266.48l-11.9,67.86s-13.91,0-16.41-5.7C388,328.64,407.79,298.39,416.29,266.48Z"/><polygon class="cls-25" points="420 329.52 407.17 325.55 406 331.28 420 329.52"/></g></g></g></svg>