<svg xmlns="http://www.w3.org/2000/svg" viewBox="0 0 709.11 257.46"><defs><style>.cls-1{fill:#151c30;}.cls-2{fill:#212c44;}.cls-3{fill:#111828;}.cls-4{fill:#273250;}.cls-5{fill:#f88063;opacity:0.5;}</style></defs><title>Ativo 12</title><g id="Camada_2" data-name="Camada 2"><g id="Layer_1" data-name="Layer 1"><path class="cls-1" d="M129,141.81l13.87,5.77S140.6,150,138.05,149C130.45,146.06,129,141.81,129,141.81Z"/><polygon class="cls-2" points="86.81 1.49 106.76 49.67 96.09 38.33 97.76 56.67 85.26 27.75 86.81 1.49"/><path class="cls-3" d="M86.43,0S81.62,24.89,69.09,38.67c-6.66,7.33,10-6.34,10-6.34L67.52,49,77,46.67s-.46,1.28-1.29,3c-1.25,2.56-3.32,6.07-5.92,7.66C65.43,60,80.09,49,80.09,49s5.34,9,2,13.67,5.64-2.33,4.34-16c-.67-7,4,8.66,6.66,12.33a42.15,42.15,0,0,0,0-6.67C92.76,50.67,97.76,59,97.76,59s-5.67-16-9.27-26.95c-.79-2.36-2.75-10.74,3.27-4.72C94.09,29.67,86.43,0,86.43,0Z"/><path class="cls-2" d="M115.5,174.17s44.12,31.85,58.44,39.35c10.8,5.65-15.33,0-15.33,0l19.23,15-17.7-6,13.29,10.15s-30.61,13-40.58-3.15c-2.57-4.17,3,12.4,3,12.4l-18.5-13.38,2.38,9.39L108,230.06l4.17,19.63s-2.43,2.24-8.43.33c-6.94-2.2-7.9-8.35-7.67-8.87.51-1.12-.51-33.54-4.26-46.57S94.88,163.77,115.5,174.17Z"/><path class="cls-3" d="M95.55,242.74l12.93-37.38,9.91.83-3.28-6.62,16.55,20.79-8.33-31.17s8.63,5.14,14.39,6.64A14.06,14.06,0,0,0,148.3,194l-15.42-5.84-11.55-10.22-4.75,2.62-3.07,8,1.37,4.63-5.56-4.38L66,206.69Z"/><path class="cls-2" d="M115.06,141.81s20.83,27.69,33.58,35.27c7.39,4.39-10,0-10,0l12.49,13.27L139.68,185l8.62,9s-21.23-2-26.87-10.62.33,20.24.33,20.24l-9.84-13.27,1.55,8.29-7.63-7L94,223.71a28.47,28.47,0,0,0-3.5-12.43c-2.94-5-7.87-18.26-7.87-18.26.33-1,15.13-21.16,12.7-32.65S101.67,132.64,115.06,141.81Z"/><path class="cls-3" d="M94.33,197.19,104,159.51l10.79,11.54-3.71-11.86L122.49,175l-4.81-26.33s7.08,5.42,12.83,6.92,13.81.26,13.81.26l-18.64-7.93-10.62-6.13-.75,11.25-8-4.75,1.37,4.63-5.56-4.38L85.26,159.31Z"/><path class="cls-3" d="M80.67,41.92l-6,5.31S58.18,66.92,48.43,71.92s9.5-1.25,9.5-1.25-3.77,9.25-12.26,11,16.26,4.5,20.51,0,.23,9.33-25.5,22.25c-8.66,4.34,16.5-1.25,22.5-4.75,0,0,.18,4.43-16.25,11.25-10.25,4.25,18-1.25,18-1.25s-5.5,4.75-6,5,8.25-2.25,6.25,2.25,15.41,1.25,20.08,8,7.92,5.25,7.92,5.25L86.93,62.92s-4-20.25-6.26-21"/><path class="cls-2" d="M106.71,104.23s13.23,25.58,37.94,34.72c8.07,3-10,0-10,0l8.12,8.63c-1.24,3-14.24-5.77-14.24-5.77l15.74,14.06s-21.24-2-26.87-10.62.33,20.24.33,20.24l-9.84-13.27,1.54,8.29-7.63-7-7.52,31.89S78.69,168.9,77.83,169.5c-6.52,4.53,16-35.77,13.52-47.26S93.33,95.05,106.71,104.23Z"/><path class="cls-3" d="M88.72,159.36l12.67-34.8,9.44,13.13-1.94-11.13,9.5,12.56L114,116.56s7.08,5.42,12.83,6.92A13.7,13.7,0,0,0,137,122.11l-15-6.3-10.63-6.12-.75,11.25-8-4.75,1.38,4.62-5.57-4.37-9.73,13.37Z"/><path class="cls-3" d="M77.14,104.8l-3.68.12s-28.34,16.3-44.26,19.35,15.06.62,15.06.62-7,8.45-20.6,8.52,25,7.65,32.2,4-.8,9.31-42.79,17.09c-14.12,2.62,26.06,2,35.91-.31,0,0-.26,4.44-26.9,8-16.62,2.22,28.41,2.29,28.41,2.29s-9.22,3.63-10,3.78,13.23-.61,9.54,3.46S74,176,80.53,183.58l.14-15.22,13.66-43.42S80.65,106,77.14,104.8"/><path class="cls-2" d="M103.82,76.82s17.26,22.12,32.81,30c8.8,4.47-8.61,0-8.61,0l10.8,11.47-9.94-4.59,8.16,8.37s-19.06-2.34-23.94-9.8.29,17.5.29,17.5l-8.52-11.48,1.34,7.18-6.6-6S94.73,136.11,92.88,133c-3.28-5.52-7.8-13.26-7.61-13.82.28-.86,3.91-16.56,1.81-26.5S92.24,68.88,103.82,76.82Z"/><path class="cls-3" d="M85.26,205,91.44,175s-17.85-17.27-22.3-18.58l-.3,2.41.3-2.41s-35.09,15.46-55,18,19,1.1,19,1.1-8.59,8.25-25.62,7.89,31.61,8.48,40.58,5.06c8.66-3.3-.08,8.48-48.06,15.12v2.49c12,.45,32.67.2,40-1,0,0-.18,4.45-33.55,7.16-20.8,1.69,35.77,3.2,35.77,3.2s-13.46,3.15-12.49,3.48c22.52,7.78-8.35,10.86-12.86,14.83s53.26-3.9,61.66,3.95,17.06,5.05,17.06,5.05Z"/><path class="cls-3" d="M92.46,85l.41-2.91v20.25S95,87.73,97.76,91c2,2.45,5.94,1.7,5.94,1.7l-2.27-5.27h0c1.7,5.59,10.76,8.91,10.76,8.91s-9.1-19-5.73-15,18,1.5,18,1.5l-12.66-3.76L104,72.56l-6.54,6.78,1.16,6.25-5.75-3.5"/><path class="cls-2" d="M96.84,44s21.59,21.17,28.59,26.17-7.5,0-7.5,0l9.41,10-8.66-4,6.5,6.75s-16-1.5-20.25-8,.25,15.25.25,15.25l-7.42-10,1.17,6.25-5.75-5.25-3,16.57s-9.76-16.07-9.51-16.82,6.41-14.69,4.58-23.34S86.75,37.08,96.84,44Z"/><polygon class="cls-3" points="85.26 90.36 85.99 85.02 93.87 91.86 92.87 102.34 89.16 93.68 85.26 90.36"/><polygon class="cls-4" points="622.3 6.35 602.35 54.52 613.02 43.19 611.35 61.52 623.85 32.6 622.3 6.35"/><path class="cls-1" d="M622.68,4.86S627.49,29.74,640,43.52c6.66,7.34-10-6.33-10-6.33l11.57,16.67-9.45-2.34a32.52,32.52,0,0,0,1.3,3c1.24,2.55,3.32,6.06,5.91,7.66,4.33,2.67-10.33-8.33-10.33-8.33s-5.34,9-2,13.66-5.64-2.33-4.34-16c.67-7-4,8.67-6.66,12.34a42.15,42.15,0,0,1,0-6.67c.33-1.67-4.67,6.67-4.67,6.67s5.67-16,9.28-26.95c.78-2.36,2.74-10.74-3.28-4.72C615,34.52,622.68,4.86,622.68,4.86Z"/><polygon class="cls-1" points="613.02 43.19 602.35 54.52 613.02 47.52 613.02 43.19"/><path class="cls-4" d="M593.61,179s-44.11,31.85-58.44,39.35c-10.8,5.65,15.33,0,15.33,0l-19.23,15,17.7-6-13.29,10.15s30.61,13,40.58-3.15c2.57-4.17-3,12.4-3,12.4l18.49-13.39-2.38,9.4,11.76-7.89-4.17,19.63s1.62,4.33,7.62,2.42c6.94-2.2,8.7-10.44,8.47-11-.51-1.13.51-33.55,4.26-46.57S614.23,168.63,593.61,179Z"/><path class="cls-4" d="M594.06,146.67s-20.83,27.69-33.58,35.26c-7.4,4.4,9.95,0,9.95,0l-12.49,13.28,11.49-5.31-8.62,8.95s21.23-2,26.87-10.61-.33,20.23-.33,20.23l9.84-13.26-1.55,8.29,7.63-7,11.83,32a28.57,28.57,0,0,1,3.5-12.42c2.94-5,7.87-18.26,7.87-18.26-.33-1-15.13-21.16-12.69-32.65S607.44,137.5,594.06,146.67Z"/><path class="cls-1" d="M628.44,46.78l6,5.31s16.5,19.68,26.25,24.68-9.5-1.25-9.5-1.25,3.76,9.25,12.25,11-16.25,4.5-20.5,0-.23,9.34,25.5,22.25c8.65,4.35-16.5-1.25-22.5-4.75,0,0-.19,4.44,16.25,11.25,10.25,4.25-18-1.25-18-1.25s5.5,4.75,6,5-8.25-2.25-6.25,2.25-15.42,1.25-20.09,8-7.91,5.25-7.91,5.25l6.25-66.75s3.95-20.24,6.25-21"/><path class="cls-4" d="M602.4,109.51s-13.23,25.57-37.94,34.72c-8.07,3,10,0,10,0l-8.13,8.63c1.25,3,14.25-5.77,14.25-5.77l-15.75,14.06s21.24-2,26.88-10.62-.34,20.24-.34,20.24l9.85-13.27-1.55,8.29,7.63-7,7.53,31.9s15.63-16.54,16.5-15.94c6.51,4.53-16-35.77-13.53-47.26S615.79,100.33,602.4,109.51Z"/><path class="cls-1" d="M620.39,164.21l-12.67-34.79-9.43,13.13,1.93-11.13L590.72,144l4.37-22.55s-7.08,5.42-12.83,6.92A13.67,13.67,0,0,1,572.08,127l15-6.3L599,114.55l-.54,11.25,8-4.75-1.38,4.62,5.57-4.37,9.73,13.36Z"/><path class="cls-1" d="M636,112.19l-.3-2.42s28.34,16.31,44.27,19.36-15.07.62-15.07.62,7,8.44,20.6,8.52-25,7.64-32.19,4,.79,9.31,42.78,17.09c14.13,2.61-26.06,2-35.91-.31,0,0,.26,4.44,26.9,8,16.62,2.21-28.41,2.28-28.41,2.28s9.22,3.64,10,3.79-13.23-.62-9.54,3.46-24,4.25-30.54,11.86l-.13-15.22L614.79,129.8s13.67-19,17.19-20.14"/><path class="cls-4" d="M605.29,81.68s-17.25,22.12-32.81,30c-8.8,4.48,8.61,0,8.61,0l-10.8,11.48,9.94-4.59L572.08,127s19-2.34,23.93-9.8-.29,17.5-.29,17.5l8.52-11.48-1.34,7.17,6.6-6s4.88,16.63,6.73,13.52c3.28-5.51,7.8-13.26,7.62-13.81-.29-.86-3.92-16.56-1.81-26.5S616.88,73.74,605.29,81.68Z"/><path class="cls-1" d="M623.85,209.88l-6.17-30.06s17.84-17.27,22.29-18.58l.31,2.41-.31-2.41s35.09,15.46,55,18-19,1.1-19,1.1,8.58,8.25,25.61,7.89-31.61,8.47-40.58,5.06c-8.66-3.3.08,8.48,48.06,15.11v2.5c-12,.45-32.66.19-40-1,0,0,.18,4.45,33.55,7.16,20.81,1.69-35.77,3.2-35.77,3.2s13.46,3.14,12.49,3.48c-22.52,7.78,8.35,10.86,12.87,14.83s-53.27-3.9-61.67,4-17,5-17,5Z"/><path class="cls-1" d="M616.65,89.86,616.24,87V107.2s-2.15-14.61-4.89-11.32c-2,2.44-5.94,1.7-5.94,1.7l2.27-5.27h0c-1.7,5.59-10.75,8.9-10.75,8.9s9.09-19,5.72-15-18,1.5-18,1.5l12.66-3.76,7.83-6.52,6.54,6.78-1.16,6.25,5.75-3.5"/><path class="cls-4" d="M612.27,48.86S590.69,70,583.69,75s7.5,0,7.5,0l-9.41,10,8.66-4-6.5,6.75s16-1.5,20.25-8S603.94,95,603.94,95l7.41-10-1.16,6.25L615.94,86l3,16.57s9.76-16.07,9.51-16.82S622,71.09,623.85,62.43,622.36,41.94,612.27,48.86Z"/><polygon class="cls-1" points="619.95 46.78 612.27 68.97 612.27 59.39 618.12 45.21 619.95 46.78"/><path class="cls-5" d="M563.92,206l-14.08,8.17,11.38.17L549.84,224l17.22-1s-16.38,10.84-21.55,12.83c0,0,13.15-3,18.41-7.25s5.76-8.06,5.76-8.06l-13.46.39,10-9.3-11.79,1.06Z"/><polygon class="cls-5" points="586.75 222.98 581.97 227.14 579.08 235.81 594.51 225.11 594.51 237.14 603.45 227.18 595.56 231.79 596.07 220.89 582.08 231.79 586.75 222.98"/><path class="cls-5" d="M570,194.31s17.36-7.22,18.94-11.94c.73-2.16,3.27,10.12,3.27,15.44,0,1.5,7-7.47,7-7.47v7.13l5.89-3.87,9.34,22.92-7.56-25.38-6.26,2v-6.87l-6.2,4.07-3.81-11S578.89,189.71,570,194.31"/><polygon class="cls-5" points="596.23 151.47 594.32 163.22 602.81 153.17 602.35 161.39 608.81 157.35 615.94 182.5 611.35 154.1 603.89 156.97 603.89 149.05 596.23 157.08 596.23 151.47"/><path class="cls-5" d="M577.46,170.31c.1.33-11.9,9.08-11.9,9.08L576.39,177l-8.5,11.41,13.89-14.07-9.7,1.54Z"/><path class="cls-5" d="M581.78,136.81,573.23,142l4.27-.66-6.26,9.07,13-6.41s-13.15,14.4-12.14,13.66c.36-.27,15.64-10.41,15.64-10.41l-5.94,1.83,4.69-7.33-10.91,4.95,4.6-7.29Z"/><polygon class="cls-5" points="599.76 115.6 599.01 127.97 606.34 117.72 605.09 125.67 615.24 116.3 607.68 121.47 607.68 114.55 600.34 121.26 599.76 115.6"/></g></g></svg>