<svg xmlns="http://www.w3.org/2000/svg" viewBox="0 0 720 376.02"><defs><style>.cls-1{isolation:isolate;}.cls-2{fill:#151c30;}.cls-3{fill:#101721;}.cls-4{fill:#3f2c36;}.cls-5{fill:#222642;}.cls-6{fill:#101726;}.cls-7{fill:#273250;}.cls-11,.cls-8{fill:#f88063;}.cls-9{fill:#fce1d9;opacity:0.7;}.cls-10{fill:#0b111e;}.cls-11{opacity:0.5;}.cls-12{opacity:0.1;}.cls-13{fill:#f4dfbb;}.cls-14{fill:#33242d;}.cls-15{fill:#101728;}.cls-16{fill:#773d3c;}.cls-17{fill:#c16256;}.cls-18{fill:#542f2a;}.cls-19{fill:#6d5867;}.cls-20{fill:#604a58;}.cls-21{fill:#721;opacity:0.2;mix-blend-mode:multiply;}.cls-22{fill:#1b243a;}</style></defs><title>Ativo 14</title><g class="cls-1"><g id="Camada_2" data-name="Camada 2"><g id="Layer_1" data-name="Layer 1"><polygon class="cls-2" points="0 224.37 84.65 268.57 360 295.11 597.11 274.19 720 233.61 720 376.02 0 376.02 0 224.37"/><path class="cls-3" d="M152.84,275.49l58.83,6.17,5,10.7-21.52,1.33,2.4,13.25c-5.23,6.75-44.72-2.79-44.72-2.79s5.46,8.33,8.16,9.86-20.54,8.11-20.54,8.11L161,330.18l-17.85,15.54s-7.21,7.56,14.13,10.8c34.05,5.17-39.49,19.5-39.49,19.5L0,375.21V332.28Z"/><path class="cls-4" d="M586.3,332.21c2.56,0,3.53-.35-1.11-.72-9.91-.78-12.17-1.56-14.39-1.72,0,0,27.79-.7,29.18-.67,3.56.07,1.24-1.63-3.06-1.74S566.67,326,566.67,326s21.33-.37,21.5-1.28-27.08-3-27.08-3l29.9-1.24s-37.65-1.79-45-1.69-27.67.9-27.67.9l-44.05,1.8,23.91,1.55-13.45,1.15s-30.81,1.62-32.36,2c-8.89,2,16,3.94,9.24,3.63,0,0,25.3.82,12.71,1.12-25.46.6-37.93-.21-35.34,1.29,2.75,1.58,35.5,1,35.5,1s-30.16,1.62-24.81,2.88c4.06,1,34.46-.34,34.46-.34S472.77,337.13,473,338s56,1.28,56,1.28,41.15-.71,44.16-1.57-2-1.94-2-1.94l26-.92c3.34-.13,3.87-.87-1.36-1s-34.6-1.69-34.6-1.69C583.44,332.22,574.69,332.09,586.3,332.21Z"/><polygon class="cls-5" points="4.27 2.19 33.63 73.09 17.94 56.41 20.39 83.39 1.99 40.83 4.27 2.19"/><path class="cls-6" d="M20.39,86.82S12.05,63.28,6.74,47.17c-1.15-3.48-4-15.81,4.82-7C15,43.66,3.71,0,3.71,0S2.56,5.92,0,14.31V89.47a37.47,37.47,0,0,0,3.71-20.8c-1-10.3,5.89,12.76,9.81,18.15,0,0,.49-7.36,0-9.81S20.39,86.82,20.39,86.82Z"/><path class="cls-5" d="M46.5,256.3s64.91,46.86,86,57.9c15.89,8.32-22.56,0-22.56,0l28.3,22.13-26-8.85,19.55,14.93s-45,19.13-59.71-4.63C68.24,331.65,76.49,356,76.49,356L49.27,336.33l3.51,13.83-17.3-11.62,6.14,28.89s-3.57,3.3-12.4.49C19,364.67,17.59,355.63,17.94,354.87c.75-1.66-.76-49.37-6.27-68.53S16.15,241,46.5,256.3Z"/><path class="cls-6" d="M72.07,276.88l-17-15-7,3.86-4.51,11.74,2,6.8L37.4,277.8,0,293.27v43L17.13,357.2l19-55,14.58,1.23-2.18-8,21.71,28.8L58,278.4s12.71,7.56,21.17,9.77,20.32.38,20.32.38Z"/><path class="cls-5" d="M99,280.1,80.61,260.58s25.53,6.46,14.64,0c-18.76-11.15-49.41-51.89-49.41-51.89-19.7-13.51-32.6,10.39-29,27.3,3,14-11.54,36.89-16.82,45.06v7.85c2.44,6.26,6.76,17,9.72,22a41.94,41.94,0,0,1,5.15,18.28l17.41-47.13,11.23,10.25L41.23,280.1l14.48,19.53s-8.79-42.47-.49-29.78,39.55,15.62,39.55,15.62l-12.7-13.18Z"/><path class="cls-6" d="M15.33,290.17l14.25-55.45,15.87,17L40,234.25l16.8,23.3L49.7,218.8s10.42,8,18.89,10.18,20.31.39,20.31.39L61.47,217.7l-15.63-9-1.1,16.55-11.78-7,2,6.81-8.19-6.44L2,234.44Z"/><path class="cls-6" d="M4.45,92.58S2.38,82,0,73.25V181a10.19,10.19,0,0,1,2,2.11c6.87,9.93,11.65,7.73,11.65,7.73Z"/><path class="cls-5" d="M89.39,204.47C53,191,33.56,153.38,33.56,153.38,13.86,139.87,7.37,163,11,179.88c1.68,7.93-4.69,25.17-10.95,40.56v36.72c6.93,6.84,15.33,15.72,15.33,15.72L26.41,226,37.64,236.2,35.36,224l14.48,19.52s-8.78-42.47-.48-29.77S88.9,229.37,88.9,229.37L65.73,208.69s19.13,12.87,21,8.49l-12-12.71S101.26,208.86,89.39,204.47Z"/><path class="cls-6" d="M7.09,234.5l18.64-51.2,13.88,19.31-2.84-16.37,14,18.47-6.43-33.18s10.42,8,18.89,10.18a20.17,20.17,0,0,0,15-2l-22.1-9.28-15.63-9L39.35,178l-11.78-7,2,6.8-8.19-6.44L7.09,191Z"/><path class="cls-6" d="M0,164v68.59l15.33-48.74S7.24,172.65,0,164Z"/><path class="cls-5" d="M29.3,113.05s25.4,32.54,48.29,44.19c13,6.59-12.67,0-12.67,0l15.89,16.89-14.63-6.75,12,12.32s-28-3.45-35.22-14.43.42,25.75.42,25.75L30.86,174.13l2,10.56-9.72-8.87s-7.18,24.47-9.9,19.9C8.38,187.61,1.73,176.21,2,175.4c.42-1.27,5.76-24.38,2.66-39S12.26,101.36,29.3,113.05Z"/><path class="cls-6" d="M17.13,357.2,2,301.7l9.09-44.24S6.13,252.68,0,247.1V355.28A25,25,0,0,0,17.13,357.2Z"/><path class="cls-6" d="M12.59,125.08l.61-4.28v29.8s3.15-21.5,7.19-16.66c3,3.6,8.74,2.5,8.74,2.5l-3.35-7.75h0c2.51,8.23,15.84,13.1,15.84,13.1s-13.39-28-8.43-22.09,26.54,2.2,26.54,2.2l-18.64-5.53-11.51-9.59-9.64,10L21.66,126,13.2,120.8"/><path class="cls-5" d="M63.91,118,50.06,103.25s21.34,7.36,11,0S19,64.75,19,64.75C4.19,54.57-.7,72,2,84.72c1.3,6.13-.12,14-2,20.73v22.78c4.06,7.06,9.24,15.59,9.24,15.59l4.4-24.38,8.46,7.72L20.39,118,31.3,132.68s-6.62-32-.37-22.44S60.73,122,60.73,122l-9.56-9.93Z"/><polygon class="cls-6" points="7.73 61.69 19.03 94.34 19.03 80.25 10.43 59.38 7.73 61.69"/><polygon class="cls-6" points="1.99 132.96 3.07 125.11 14.66 135.17 13.2 150.6 7.73 137.86 1.99 132.96"/><polygon class="cls-7" points="701.19 70.97 678.34 126.15 690.56 113.17 688.65 134.16 702.97 101.04 701.19 70.97"/><path class="cls-2" d="M688.65,136.84s6.49-18.33,10.62-30.86c.9-2.71,3.15-12.31-3.75-5.41-2.67,2.67,6.11-31.31,6.11-31.31s5.13,26.52,18.37,42.57v2.26c-3.93-2.84-10-7.8-10-7.8l10,14.36v3.92l-7.54-1.86a37.26,37.26,0,0,0,1.49,3.44,31.91,31.91,0,0,0,3.59,5.84c-3.73-2.91-8.66-6.61-8.66-6.61s-6.1,10.31-2.29,15.66-6.45-2.67-5-18.33c.76-8-4.58,9.93-7.64,14.13,0,0-.38-5.73,0-7.64S688.65,136.84,688.65,136.84Z"/><path class="cls-2" d="M648.42,284.78l13.24-11.71,5.44,3,3.51,9.14-1.57,5.3,6.37-5L720,303.94v8.16l-28.81,35.2-14.81-42.82-11.36.95,3.76-7.59-19,23.82,9.55-35.7s-9.9,5.88-16.49,7.6-15.8.3-15.8.3Z"/><path class="cls-7" d="M668.84,231.7S645,263.41,630.38,272.09c-8.48,5,11.4,0,11.4,0l-14.31,15.2,13.17-6.08-9.88,10.25s24.32-2.27,30.78-12.15-.38,23.17-.38,23.17l11.27-15.19-1.77,9.49,8.73-8L693,325.5a32.49,32.49,0,0,1,4-14.23c3.36-5.77,9-20.92,9-20.92-.38-1.14-17.33-24.24-14.54-37.4S684.17,221.18,668.84,231.7Z"/><path class="cls-2" d="M692.59,295.12,681.5,252l-12.35,13.22,4.25-13.58-13.08,18.13,5.51-30.16s-8.11,6.21-14.7,7.92-15.81.3-15.81.3l21.35-9.08,12.17-7,.86,12.88,9.16-5.44-1.57,5.3,6.37-5L703,251.74Z"/><path class="cls-2" d="M701.06,141.32s4.53-23.19,7.16-24l6.87,6.08S717,125.66,720,129v76.91c-5.75.76-13.9,1.35-17,5.89-5.35,7.73-9.07,6-9.07,6Z"/><path class="cls-7" d="M678.4,188.64s-15.16,29.3-43.46,39.77c-9.24,3.42,11.4,0,11.4,0L637,238.3c1.42,3.42,16.31-6.6,16.31-6.6l-18,16.09s24.32-2.28,30.78-12.16-.38,23.18-.38,23.18L677,243.61l-1.78,9.5,8.74-8,8.63,36.53s17.91-18.94,18.89-18.25c7.46,5.18-18.27-41-15.48-54.14S693.73,178.13,678.4,188.64Z"/><path class="cls-2" d="M699,251.79l-14.51-39.85-10.8,15,2.21-12.74L665,228.6l5-25.83s-8.11,6.21-14.7,7.93a15.73,15.73,0,0,1-11.67-1.57l17.21-7.22,12.17-7,.85,12.88,9.17-5.44-1.58,5.3,6.38-5L699,217.94Z"/><path class="cls-2" d="M712.27,189.3l4.56,2.9-.34-2.77s1.3.75,3.51,2v82.24c-5,1.44-9.38,3.28-11.61,5.89l-.16-17.43-15.64-49.73S708.25,190.67,712.27,189.3Z"/><path class="cls-7" d="M681.71,157.25s-19.76,25.33-37.58,34.4c-10.08,5.13,9.86,0,9.86,0L641.62,204.8,653,199.54l-9.34,9.59s21.83-2.69,27.42-11.23-.33,20-.33,20l9.75-13.15L679,213l7.56-6.9s5.59,19,7.71,15.48c3.76-6.31,8.93-15.18,8.72-15.81-.33-1-4.48-19-2.07-30.36S695,148.16,681.71,157.25Z"/><path class="cls-2" d="M703,304.09l-7.08-34.43S713.31,252.81,720,249v89.28c-4.32.64-7.63,1.65-9.28,3.19-9.62,9-19.53,5.79-19.53,5.79Z"/><path class="cls-2" d="M694.72,166.62l-.47-3.33v23.19s-2.46-16.73-5.6-13c-2.33,2.8-6.8,1.94-6.8,1.94l2.6-6h0c-2,6.4-12.32,10.2-12.32,10.2s10.42-21.8,6.56-17.2S658,164.14,658,164.14l14.51-4.3,9-7.47,7.5,7.77-1.34,7.16,6.59-4"/><path class="cls-7" d="M689.71,119.66S665,143.9,657,149.63s8.59,0,8.59,0l-10.78,11.45,9.92-4.58-7.44,7.73s18.32-1.72,23.19-9.16-.28,17.47-.28,17.47l8.49-11.46-1.34,7.16,6.59-6,3.43,19s11.17-18.41,10.89-19.27-7.35-16.81-5.25-26.73S701.26,111.74,689.71,119.66Z"/><polygon class="cls-2" points="698.5 117.28 689.71 142.69 689.71 131.72 696.4 115.48 698.5 117.28"/><path class="cls-8" d="M526.59,328.94h-9.25s-5.26-3.12-5.63-11.93c-.27-6.45.67.84,4.66,4.14,2,1.6-1.28-3.16-1.34-11.22,0-3.53,1-7.59,2.8-12.15.61-1.59,5.89,8.8,5.52,20,0,0,2.27-7.06,1.78-13.39s-1.82-12.17-1.7-13.15c.26-2.07,9.25,7.8,9,22.16s1.46,3.16,2.92.48,4.09-4.43,2.92-8.52c-.49-1.7,2.6,3.27,3.41,11.2,1,9.5-4.87,12.42-4.87,12.42Z"/><path class="cls-9" d="M536.16,317.24c.52,4-1,8.12-4.06,8.71-.73.13-1.35-1.52-1.5-3.83-.35-5.13-4.61-8.18-3.87-6.34,1.55,3.83-2.14,8.55-2.16,9.67-.55-.46-1.76-1.72-2.39-4.92-.34-1.71-2.67-4.75-2.67-4.75-1.07,2.79-.76,6.26-.23,8.94v0a8.22,8.22,0,0,1-4.27-2.57c-2.25-2.42.92,4.94,4.91,6.83h.52l14.29.05C541.8,324.24,535.9,315.25,536.16,317.24Z"/><path class="cls-10" d="M546,330.18a2.1,2.1,0,0,1-2.1,2.1H530.45a2.1,2.1,0,0,1-2.1-2.1h0a2.1,2.1,0,0,1,2.1-2.1h13.46a2.1,2.1,0,0,1,2.1,2.1Z"/><path class="cls-10" d="M527.17,330.18a2.1,2.1,0,0,1-2.1,2.1H511.6a2.1,2.1,0,0,1-2.1-2.1h0a2.1,2.1,0,0,1,2.1-2.1h13.47a2.1,2.1,0,0,1,2.1,2.1Z"/><path class="cls-10" d="M537.18,332.28a2.1,2.1,0,0,1-2.1,2.1H521.61a2.1,2.1,0,0,1-2.1-2.1h0a2.1,2.1,0,0,1,2.1-2.1h13.47a2.1,2.1,0,0,1,2.1,2.1Z"/><path class="cls-11" d="M645,262.53l-10.81,9.22,9.49-.72-7.33,9.66,7.33-1.16L637,288.46s8.29-2.6,11-5.1l-5.17.5,3.91-6.81-6.24.4,5.33-8.25h-6.16Z"/><polygon class="cls-11" points="617.75 318.77 606.45 325.5 620.9 322.12 606.75 334.38 622.76 338.27 611.25 333.27 624.88 320.4 615.41 321.52 617.75 318.77"/><path class="cls-11" d="M627.47,300.2c-.22.2-23.93,14.33-23.93,14.33l20.09-3.13-5.88,7.38,9.33-8.86-15.33,1.48Z"/><path class="cls-4" d="M500.87,340.78c-.27-.28,56.26,0,56.26,0s7.37,2.37,4.62,2.62-8.25,1.25-8.25,1.25l5.75.63h-24.5s-22.12,1-20.5,0,8.75-2,8.75-2S503.25,343.15,500.87,340.78Z"/><g class="cls-12"><path class="cls-13" d="M514.5,295c2.5-5.5,5-14,5-20.5,0-13.5-8-19.5-15-30-14.5-22.5-5.25-43.86,9.75-64.36,14.5-20.5,17.37-39.7-10.75-72.64,5.5,4,34,10.41,39.31,25.67,6.69,19.17-5.15,28.15-9.15,39.65-4,10-16.32,19.37-15.32,30.37,1.5,14.5,25.16,17.81,27.66,30.31,2.5,14.5-10,26.5-12.5,39.5-2,11.5,6.5,25.5.5,35.5,1.5-6.5,3.5-16.5-3.5-20.5-7-4.5-13.5,3-15,7"/></g><g class="cls-12"><path class="cls-13" d="M513,169.53c16.5-20.67,2.75-40.2-12-48.5,6.5,7,12,15.9,14,25.4,1,3.5.8,19.78-2,23.1"/></g><g class="cls-12"><path class="cls-13" d="M541.33,216.75c-5,1.38-11.17-2.29-12.67-4.66-3.53-5.6-5.63-10.88-3.33-16.67,5.33-13.46,20.3-22.76,21.67-31.67-1.34,10.67-9.34,19-14,28-4.34,8.34-3,22.67,8.33,25"/></g><polygon class="cls-10" points="416.13 266.68 416.13 267.07 421.81 330.74 404.39 334.35 416.13 266.68"/><polygon class="cls-14" points="416.13 266.48 329.55 266.48 328 268.89 282.48 339.66 367.55 342.14 416.13 266.48"/><polygon class="cls-15" points="367.55 342.14 322.48 360.99 201.32 362.66 282.48 339.66 367.55 342.14"/><path class="cls-16" d="M343,352.39c-.3.37.22.9.54.53q15.41-18.41,30.83-36.8l-1.34.43Z"/><path class="cls-17" d="M416.09,266v-.64a.3.3,0,0,0-.22.1l-42.8,51.09,1.34-.43,14.75-17.62,24.21-28.9,2.44-2.91a2,2,0,0,0,.24-.34v0C415.93,266.13,416,266,416.09,266Z"/><path class="cls-16" d="M446.52,318.47l-1.14-.48q1.8,3.18,3.61,6.35c.23.42.88.05.64-.38Z"/><path class="cls-8" d="M416.46,265.54a.38.38,0,0,0-.37-.18V266c.07,0,.1.07,0,.27v.15l6.76,11.9L445.38,318l1.14.48Z"/><path class="cls-18" d="M257.84,345.62c-.33.36.2.89.53.53l52.22-58c-.48.16-.95.33-1.43.47Z"/><path class="cls-19" d="M416.13,266.68s19.8,52.58,21.8,60.64l-16.68,3.42Z"/><polygon class="cls-20" points="404.39 334.48 367.14 342.27 416.13 266.61 404.39 334.48"/><path class="cls-21" d="M415.69,267.11l-11.3,67.23s-20.54,1-23.7-7.8C380.69,326.54,405.84,298.63,415.69,267.11Z"/><path class="cls-8" d="M416.29,266.48l-11.9,67.86s-13.91,0-16.41-5.7C388,328.64,407.79,298.39,416.29,266.48Z"/><polygon class="cls-22" points="420 329.52 407.17 325.55 406 331.28 420 329.52"/></g></g></g></svg>